/* XPM */
static char *result[] = {
/* columns rows colors chars-per-pixel */
"32 32 59 1 ",
"  c #301504",
". c #351704",
"X c #351705",
"o c #54080E",
"O c #54090E",
"+ c #55090E",
"@ c #54090F",
"# c #441E06",
"$ c #441E07",
"% c #441F07",
"& c #7D0C14",
"* c #7C0D14",
"= c #7D0D14",
"- c #7D0D15",
"; c #542408",
": c #542409",
"> c #76340C",
", c #77340C",
"< c #77340D",
"1 c #77350D",
"2 c #9E111A",
"3 c #9F111A",
"4 c #9E111B",
"5 c #B2131E",
"6 c #B3131E",
"7 c #B4121E",
"8 c #B4131E",
"9 c #B5131E",
"0 c #B4131F",
"q c #C51520",
"w c #C51421",
"e c #D31622",
"r c #D21623",
"t c #D31623",
"y c #D31723",
"u c #DD1625",
"i c #DC1725",
"p c #DD1725",
"a c #F01828",
"s c #F11828",
"d c #F01928",
"f c #F01929",
"g c #F11929",
"h c #FE1C2A",
"j c #FF1C2A",
"k c #FE1C2B",
"l c #FF1C2B",
"z c #FF1D2B",
"x c #FF535E",
"c c #FF5E69",
"v c #FF5F69",
"b c #FF969C",
"n c #FE969D",
"m c #FF969D",
"M c #FFA0A6",
"N c #FFA1A6",
"B c #FFA0A7",
"V c #FFAAAF",
"C c None",
/* pixels */
"CCCCCCCCCCCCCCCCCCCCCCCCCCCCCCCC",
"CCCCCCCCCCCCCCCCCCCCCCCCCCCCCCCC",
"CCCCCCCCCCCCCCCCCC<<CCCCCCCCCCCC",
"CCCCCCCCCCCCCCCCCC<<CCCCCCCCCCCC",
"CCCCCCCCCCCCCCCC<<$$CCCCCCCCCCCC",
"CCCCCCCCCCCCCCCC,<$$CCCCCCCCCCCC",
"CCCCCCCCCCCCCCCC1<CCCCCCCCCCCCCC",
"CCCCCCCCCCCCCCCC><CCCCCCCCCCCCCC",
"CCCCCCCCCCCCtt65  $%CCCCCCCCCCCC",
"CCCCCCCCCCCCet55  #$CCCCCCCCCCCC",
"CCCCCCCCttttdd::::88====CCCCCCCC",
"CCCCCCCCttytdd;:;;88====CCCCCCCC",
"CCCCCCttddllllll88ll8888==CCCCCC",
"CCCCCCytddjhllzz88ll8888==CCCCCC",
"CCCCCCttzlVVmmcvjlllll88=*CCCCCC",
"CCCCCCttllVVmmccllllll88-=CCCCCC",
"CCCCttddBNmmccllllllzlup88=*CCCC",
"CCCCttddMNmmccklllllllpp88=&CCCC",
"CCCCetllxxmmzlllljllddpp78OOCCCC",
"CCCCttkkxxnblllllkklddii88O@CCCC",
"CCCCtrkllljllzllllljddip88+OCCCC",
"CCCCrtllllzllllllllldapp88OOCCCC",
"CCCC55lllllllkllllsfppww78OOCCCC",
"CCCC55lljlljlljlllgdppww80OOCCCC",
"CCCCCC32ppllllddddppww88OOCCCCCC",
"CCCCCC22pplllldfddppwq88oOCCCCCC",
"CCCCCC220888ppppppww8780OOCCCCCC",
"CCCCCC428888ppppppww7778OOCCCCCC",
"CCCCCCCCO@8988XX.X8888O@CCCCCCCC",
"CCCCCCCCO+8888X.XX8780OOCCCCCCCC",
"CCCCCCCCCCOOOOCCCCOOOOCCCCCCCCCC",
"CCCCCCCCCCOOOoCCCCOOOOCCCCCCCCCC"
};
