/* XPM */
static char *result[] = {
/* columns rows colors chars-per-pixel */
"64 64 150 2 ",
"   c #331605",
".  c #351805",
"X  c #3B1A05",
"o  c #54070D",
"O  c #54090E",
"+  c #441E07",
"@  c #531A0A",
"#  c #721B0F",
"$  c #670B11",
"%  c #6D0C12",
"&  c #730B12",
"*  c #7C0D14",
"=  c #751510",
"-  c #7A1312",
";  c #442007",
":  c #532408",
">  c #5A2608",
",  c #573C14",
"<  c #6A2E0B",
"1  c #75230F",
"2  c #77330C",
"3  c #78340D",
"4  c #6E3716",
"5  c #743914",
"6  c #3C400E",
"7  c #4A4511",
"8  c #5D5F1A",
"9  c #785015",
"0  c #79641D",
"q  c #6F7A21",
"w  c #757823",
"e  c #7B7A25",
"r  c #8D0E16",
"t  c #8E0E18",
"y  c #950F19",
"u  c #9C0F19",
"i  c #801F11",
"p  c #9E111A",
"a  c #A5111B",
"s  c #AD121C",
"d  c #A0191B",
"f  c #A8181C",
"g  c #B4121D",
"h  c #BC141F",
"j  c #B51320",
"k  c #BE1420",
"l  c #C4131F",
"z  c #C41421",
"x  c #CB1522",
"c  c #D21624",
"v  c #DD1726",
"b  c #D31824",
"n  c #DD1826",
"m  c #E11726",
"M  c #E51827",
"N  c #E91927",
"B  c #ED1A28",
"V  c #F11928",
"C  c #FF1D2B",
"Z  c #FF202B",
"A  c #FF2532",
"S  c #FF2A36",
"D  c #925A21",
"F  c #976423",
"G  c #957928",
"H  c #A37228",
"J  c #BE7A2D",
"K  c #DD4629",
"L  c #FF3B45",
"P  c #FE3F4A",
"I  c #FF424D",
"U  c #FF4B55",
"Y  c #FF5057",
"T  c #FF545D",
"R  c #FD5C65",
"E  c #FF5D68",
"W  c #FF646D",
"Q  c #FF6670",
"!  c #F77076",
"~  c #FF727A",
"^  c #4F9B2F",
"/  c #529B2F",
"(  c #4F9B32",
")  c #529D32",
"_  c #529D38",
"`  c #638125",
"'  c #798726",
"]  c #798D28",
"[  c #63942B",
"{  c #6D942B",
"}  c #669C2D",
"|  c #699C2D",
" . c #7A9D2F",
".. c #7C9B31",
"X. c #54A12F",
"o. c #54A232",
"O. c #59A534",
"+. c #5CAB35",
"@. c #55A438",
"#. c #59A638",
"$. c #5CAB39",
"%. c #5EB332",
"&. c #5FB038",
"*. c #69A32F",
"=. c #6BA530",
"-. c #61AE35",
";. c #6FAF33",
":. c #61AF39",
">. c #78AD34",
",. c #63B436",
"<. c #69B637",
"1. c #6CBE37",
"2. c #64B439",
"3. c #66B739",
"4. c #66B939",
"5. c #6BBC3B",
"6. c #7CB536",
"7. c #73BD36",
"8. c #75BF38",
"9. c #7BBD38",
"0. c #6EC13A",
"q. c #73C53C",
"w. c #79C73B",
"e. c #76CC3D",
"r. c #7ACE3E",
"t. c #77D43D",
"y. c #7BD33E",
"u. c #6DBB43",
"i. c #72C341",
"p. c #76C941",
"a. c #79CC41",
"s. c #77D340",
"d. c #7DD241",
"f. c #93822B",
"g. c #8D9F31",
"h. c #9E9530",
"j. c #B19532",
"k. c #9AB738",
"l. c #99B939",
"z. c #A7A533",
"x. c #86C63B",
"c. c #82C83B",
"v. c #80D23F",
"b. c #80D443",
"n. c #FF858D",
"m. c #FF8B91",
"M. c #FF969D",
"N. c #FF9DA3",
"B. c #FFA1A6",
"V. c #FFA9AF",
/* pixels */
"y.y.y.t.v.y.y.y.v.y.v.y.y.y.t.y.y.d.y.y.d.y.t.b.b.t.b.b.y.d.b.v.y.y.v.b.t.t.b.t.y.y.y.y.y.y.d.y.y.y.y.y.y.v.y.v.t.y.y.d.y.y.y.y.",
"y.y.y.y.y.y.v.y.y.y.y.v.y.y.y.y.y.y.y.y.y.y.t.y.t.v.v.y.v.y.y.y.y.y.t.t.t.b.t.b.y.b.b.y.y.v.y.y.y.y.y.y.y.v.y.y.v.y.y.y.y.t.y.y.",
"y.y.y.y.y.v.y.y.y.v.y.y.d.y.y.y.y.y.y.y.y.y.v.y.y.t.y.y.y.v.y.y.y.v.y.y.t.t.b.t.v.r.y.d.v.y.y.v.y.v.v.y.d.y.y.v.y.y.v.y.y.y.y.y.",
"v.v.v.v.v.v.a.y.v.y.v.y.0.0.y.v.y.y.d.y.y.d.v.y.b.y.y.v.y.y.v.v.y.b.v.y.v.b.v.v.y.b.y.y.y.v.y.y.v.t.v.y.y.v.v.y.v.y.y.d.y.d.y.d.",
"v.y.y.y.t.y.y.t.y.y.d.e.&.&.t.y.y.r.y.a.y.d.b.d.t.v.y.v.y.y.y.y.y.v.r.6.9 2 9 c.d.v.y.v.y.y.d.t.y.t.e.e.y.v.y.b.b.d.y.5.%.a.d.y.",
"b.d.s.%.q.y.y.e.e.e.2.O.#.0.y.y.y.y.r.:.$.w.y.y.v.y.v.y.y.v.y.y.y.e.%.>.2 2 9 v.y.y.y.v.v.d.y.s.t.q.+.3.y.y.y.d.d.y.s.0.$.&.e.d.",
"y.0.+.o.0.y.a.,.q.e.+._ @.q.y.y.y.y.a.#.#.e.v.y.y.y.y.y.y.y.y.y.y.w.%.>.2 2 9 y.y.c.y.r.w.y.q.0.q.$.$.q.r.y.y.q.5.y.d.s.4.@.4.y.",
"b.0.o.0.y.y.4.+.0.r.+.@.O.q.r.y.t.3.&.i.p.d.y.y.y.y.t.v.v.y.y.y.] 2 3 < ; ; 7 y.r.y.y.0.$.3.u.O.+.O.4.d.y.y.y.7.4.y.s.d.0.O.2.t.",
"b.a.w.d.y.y.q.p.r.y.e.q.q.r.y.y.r.+.+.a.b.y.c.d.y.y.y.r.y.y.e.%.q 2 2 < + + 7 r.r.v.r.q.O.#.$.@.#.$.3.y.y.y.y.e.e.d.y.v.a.2.O.4.",
"y.y.y.y.d.d.y.d.y.d.y.y.r.d.y.r.r.q.q.d.y.v.y.d.r.r.y.y.d.y.t.q.' 2 2 < + + 7 y.v.y.y.r.e.q.q.q.q.q.a.y.y.y.y.y.y.y.y.y.v.r.q.e.",
"v.y.y.y.y.d.y.y.y.y.s.y.y.e.y.t.v.y.y.v.r.y.c.y.y.y.y.y.y.y.y.y.] 3 2 ' q.8.8.v.y.y.v.y.y.y.v.y.d.y.y.y.y.y.y.y.y.y.y.y.y.y.y.y.",
"y.y.y.y.d.y.y.y.y.y.y.d.d.d.r.y.y.r.v.y.v.y.d.d.y.c.v.y.v.r.y.d.] 2 2 ' y.c.y.r.v.y.y.y.y.b.y.y.y.y.y.y.y.r.y.y.y.v.y.y.d.y.y.y.",
"y.t.y.y.r.d.y.r.r.y.y.r.y.y.d.y.y.r.a.y.y.d.y.s.d.y.v.y.y.y.y.t.] 3 2 ' y.y.y.y.y.y.y.v.y.y.y.v.b.y.y.y.y.y.y.y.y.v.y.v.y.y.y.v.",
"y.y.y.t.y.d.r.d.y.y.d.y.d.e.d.r.y.r.y.d.y.y.y.y.y.b.j.j.j.h.h.h.0 > > 8 [ [ } y.y.v.v.y.y.y.v.y.y.r.y.r.a.s.r.r.r.y.r.v.y.d.d.d.",
"t.y.y.y.y.y.y.v.y.y.d.r.y.d.s.y.y.y.d.d.a.y.d.y.y.d.b b b j j g -     . + + 7 y.y.y.d.y.y.d.y.y.a.y.y.y.y.y.d.y.y.y.d.y.y.v.d.b.",
"y.y.t.y.v.y.y.y.b.y.y.y.d.a.y.d.y.a.y.y.y.y.y.y.y.y.b c b j g g -       + + 7 y.b.y.y.v.d.d.y.y.v.y.v.y.r.y.r.y.y.y.y.y.y.y.y.b.",
"y.t.y.v.y.y.y.y.v.v.t.v.v.t.t.v.y.y.v.x.x.k.k.k.l.l.v c v f p d # X X @ # # 5 6.6.6.l.6.6.r.y.y.y.v.d.y.a.y.y.t.t.r.y.r.y.y.y.b.",
"y.y.t.y.y.y.y.y.v.t.v.t.v.v.v.t.v.t.v.z.m b b b c c V V V 1 : : : : : i g g g * * & & * * 9.d.d.r.y.y.d.r.y.y.y.y.y.y.s.d.y.b.b.",
"y.t.y.t.y.y.t.v.v.v.t.v.t.v.t.v.t.t.t.z.x b b b c c V V V 1 : : : : : i g g s * * * * * * 9.y.d.a.y.y.r.a.t.y.d.t.t.d.y.y.y.d.b.",
"v.y.y.v.v.y.y.y.t.v.t.v.v.t.t.t.t.t.t.z.b b b b c c V V V 1 : : : : > 1 g g g * * * * * * 9.y.a.d.d.y.b.d.d.t.y.d.t.y.r.y.b.a.b.",
"t.t.t.v.t.t.v.t.t.v.t.t.v.t.v.t.J c b m V V V C C C C C C C C C c g g c C C V g j g g g g r * * ..d.d.t.a.y.y.t.y.y.y.y.v.y.b.d.",
"v.v.t.v.t.v.t.v.t.t.t.t.t.t.t.t.J c b v V V V C C C C C C C C C b g g c C C C g j g g g g r * * ..y.t.d.t.y.y.y.y.t.t.y.v.v.d.b.",
"v.t.v.t.t.t.t.t.t.t.t.t.t.t.t.t.J b b m V V V C C C C C C C C C b g g c C C C g g j g g g r * *  .y.y.y.y.y.d.t.y.y.d.y.v.d.b.d.",
"t.v.t.t.v.v.v.t.t.t.v.v.t.t.t.t.J c b M C C U N.V.V.M.M.M.W E E L C C C C C C C Z Z g g g r * *  .y.d.t.y.t.y.y.y.t.y.y.y.y.d.b.",
"t.v.t.t.t.t.t.t.t.t.t.c.t.t.t.t.J c c m C C Y V.V.V.M.M.M.Q E E I C C C C C C C C C g g g r * * >.y.y.y.y.y.s.s.y.y.y.y.y.y.v.b.",
"v.t.c.t.c.t.v.t.t.t.t.t.y.t.y.y.J c b N C Z Y V.V.V.M.M.M.Q E E I C C C C C C C C C g g g r * *  .t.s.y.y.y.y.y.y.y.s.t.y.y.b.b.",
"v.t.t.t.v.t.t.t.t.c.v.t.y.J J J K M m T m.m.m.M.B.M.~ ~ ~ P L L A C C C C C Z C C C c c c g a a D e e e t.s.d.y.y.t.y.y.y.y.y.b.",
"t.t.t.c.t.t.v.v.t.t.v.t.y.b l b N B B ! B.B.B.M.M.M.R W E S C C C C C C C C C C C C v v v k g g y * * - y.y.t.d.y.y.t.y.r.v.b.a.",
"v.t.t.c.t.t.t.t.v.t.v.t.t.b b b N V M ! B.B.N.M.M.M.R R E S C C C C C C C C C C C C n v n k g g u * * * y.y.y.y.y.y.y.y.v.y.b.b.",
"v.t.v.t.v.t.c.t.t.v.v.t.v.b b b B V Z T n.n.n.M.M.M.U U U A C C C C C C C C C C C V v v n k g g y % % % t.y.y.t.y.y.r.y.r.v.a.b.",
"t.t.t.t.t.t.t.t.t.t.v.v.v.b b b Z C C I T T W M.M.M.Z C C C C C C C C C C C C B V V n n n h g g t O o O t.y.y.y.v.y.y.v.y.d.v.b.",
"c.t.c.t.t.v.t.c.t.v.v.t.t.b b b V Z C L T T W M.M.M.Z C C C C C C C C C C C Z B V V n n n h g g t O o o y.y.y.y.r.v.y.v.v.y.d.d.",
"y.t.y.t.y.r.y.r.t.y.y.d.s.c c c V C C L U U R m.n.n.C C C C C C C C Z C C C C V V V n v v k g g r o o o y.y.y.y.r.y.v.y.v.v.y.v.",
"t.y.y.r.y.t.y.t.y.y.y.t.y.c c c V C C C Z C C C C C C C C C C C C C C C C C C V V B n v v h g g r o o o y.y.y.y.r.y.r.y.v.y.v.y.",
"y.y.r.t.t.y.y.y.t.r.y.y.y.c c c V C C C C C C C Z C C C C C C C C C C C C C C V B V v v v k g g t O o O y.t.y.r.r.y.y.y.y.v.y.v.",
"t.w.t.y.y.t.t.y.y.y.y.t.y.c c c V C C C C C C C C C C C C C C C C C C C C C C V V B v v v l g g t o O O t.y.y.t.y.v.v.y.v.y.v.b.",
"t.t.y.t.t.y.y.y.y.y.y.t.y.j g j B Z C C C C C C C C C C C C C C C C C C V N V v v v z z z g g g t o O O y.t.y.y.v.v.v.y.y.y.d.d.",
"c.y.t.t.y.y.y.y.t.y.y.y.t.j j s B Z C C C C C C C C C C C C C C C C C V V V B v v v z z z h g g t o O O y.y.y.y.y.y.d.y.y.d.d.b.",
"v.t.t.v.t.r.y.y.t.y.y.y.d.g g j B Z C C C C C Z C C C C C C C C C C C C V V V v n n z z z g j g t o O O y.y.y.y.y.v.y.y.y.d.b.b.",
"t.v.t.t.y.t.y.y.y.y.y.r.y.x.w.c.H s g z M m M C C C C C C V V V V V V V n n n z x z g g g r $ $ { w.w.q.t.y.y.y.y.y.y.y.d.d.d.d.",
"v.t.v.t.t.c.t.t.y.y.y.y.d.t.s.t.G p p k n n m C C C C C C V V V V V V M v v v z z z g g g & o O } y.t.y.t.y.y.y.y.b.y.y.y.y.b.b.",
"t.v.t.c.v.t.t.v.t.y.y.y.y.y.t.d.G p p k n n m C C C C C C V V V V V V N n n v z z z g g g & o o } t.y.y.y.y.t.t.y.v.y.v.v.y.b.a.",
"t.t.t.t.t.t.v.t.y.t.y.y.t.y.t.y.G p p g z z x b c b N N B M M m m m M v x x c g h k g g g & O O | y.y.t.s.y.y.y.y.y.y.y.v.y.v.b.",
"c.t.v.t.v.t.v.t.y.y.y.v.y.r.y.t.G p p a g g g g g g n v v n n v m v v c z z z g g g g g g & O O } y.t.y.y.y.y.r.d.y.y.v.y.y.d.d.",
"t.v.c.t.t.t.v.t.t.t.y.y.y.y.t.t.G p p a g g g g g g m v n n v v v v n c z l z g g g g g g & O O } y.s.y.y.t.r.r.d.y.y.r.y.y.b.b.",
"v.t.t.t.c.t.v.t.y.y.t.y.y.d.t.d.g.f.f.F u u a j g g c c l h h h h g h h h l l g g g u u u w ` ` ;.y.t.y.y.y.y.t.r.y.a.y.b.y.a.b.",
"t.t.t.v.t.v.t.t.y.t.y.t.y.d.y.y.y.y.y.*.o o % g g g g g h @ . . . . . = g g g g g g o o o 7.r.y.y.y.t.y.t.r.y.y.y.y.y.y.r.b.b.b.",
"t.c.t.c.t.t.t.c.y.t.v.y.y.y.y.y.y.y.d.=.O o % g g g g g g @ . . . .   - g g g g g g o o o 7.y.y.y.t.t.y.y.y.t.y.y.y.y.d.c.b.a.b.",
"v.v.t.t.t.t.c.t.c.t.t.v.t.v.t.t.y.t.d.;.7 , 4 g s g s g s , 6 6 6 6 6 3 s g s g s s 4 7 , 0.y.y.t.y.t.t.t.y.e.y.t.y.y.y.y.v.y.b.",
"t.c.v.c.v.v.v.t.c.v.v.t.t.v.t.v.y.t.t.y.y.v.q.O o o O O O w.y.t.y.y.y.;.O O o O O O t.y.t.y.d.s.y.y.y.y.y.y.y.y.y.y.y.y.c.v.b.d.",
"t.v.t.v.v.t.y.v.t.t.t.v.t.v.v.t.y.y.t.y.y.y.8.O O O o o O w.y.y.y.y.y.;.O O O O O O y.t.y.y.t.y.d.t.t.y.y.y.y.y.t.y.y.y.d.b.d.b.",
"t.v.t.v.v.t.v.t.v.v.v.t.v.v.t.v.y.y.y.t.y.y.8.O O O O O O w.y.y.d.y.y.;.o o O O O O y.y.t.y.t.y.y.y.y.y.y.y.y.y.r.y.t.y.y.d.d.d.",
"v.t.v.v.t.v.t.c.c.t.t.c.t.t.v.t.y.y.d.d.y.y.y.y.y.y.y.y.y.y.y.y.y.y.y.y.y.y.y.y.y.y.y.y.y.y.y.y.y.y.y.y.t.y.y.y.y.y.y.y.b.y.y.b.",
"t.v.7.7.t.v.7.w.7.1.t.c.v.v.v.v.y.d.y.y.y.y.t.y.y.t.y.0.y.y.y.y.y.y.y.0.q.v.v.y.y.t.t.y.y.y.s.p.a.0.q.v.v.y.r.q.0.y.y.y.y.y.a.b.",
"v.t.%.7.v.t.%.0.%.X.%.%.t.t.v.t.y.y.y.d.y.y.t.0.4.e.e.X.;.r.y.y.s.d.<.O.+.5.r.t.e.,.%.y.y.d.i.2.u.) 2.v.y.y.y.5.O.0.y.r.y.a.b.d.",
"t.v.%.%.1.t.%.0.%.X.X.X.7.v.t.7.s.y.d.s.y.e.,.o.) +.+./ / -.%.<.d.a.O.O.X.+.t.e.X./ O.0.-.2.:.O.#.@.3.b.v.v.w.+./ O.1.5.q.b.a.b.",
",.4.+.o./ 2.+.+.X.^ ^ / 7.y.w.%.2.0.v.y.y.r.#.X.) / / ) ( / / O.a.4.O.X.X.#.5.i./ / ) #./ ^ o.o.o.o.+.i.d.b.0.o.) / #.O.O.,.0.d.",
") o.X.X.o.o.o.o.^ X.^ / 0.y.w.X./ O.1.y.d.e.o.X.) ) / ) ) / / ) 2.O.o.o.O.X.o.+./ ) / / ^ / / / o.o.o.2.a.4.$.o./ ( ^ ^ ( ^ &.a.",
") / X.o.X./ o.X.X.X.^ / 7.t.w.X.) / ) i.0.4.O.X.o.o.) ) / / ) / ( o.o.O.X.X.X.X./ ) ) / / / ) ) ) o.X.3.p.o.o.) o.( o.( X.( X.3.",
"/ / 2.+.) o.) 3.%.X.^ / / 0.w.%.) ) ) *.O.X.o.X.o./ ) ) :.) ) / / ) O.2.O.) o.o.) ) / / / _ -.) o.o.) +.$.o.o.( +.+./ ) ( o.o.$.",
") / *._ ) ) ) 2.O.o.o.( / %.-./ / / / ( / o.X.o.o.) X.O.-.) ) / ^ ^ @.$.o.X.o.) ) ) ) ) ) _ *.) ) ) ) ) o.o.o._ +.$._ X.o.o.X.o.",
") ) ) ) / / ) ) o.X.o.o.X.X./ / / ( / / ) ) ) o./ X./ o.) ) ) / / ) ) ) ) ) o.) ) ) ) ) / / ( / ) ) ) ) X.o.( X.( X.o.X.o.X.o.( ",
"/ / / ) _ ) X./ o.) X.) o.o./ / ( _ / ) / ) ) ) ) o.o.X._ ) ( ( / / ( ( ) o.o.) / o.) _ ) ) / ( / _ ) ) ( _ o.) o.o.o.X.X.X.o.( ",
"_ ( ( ( ( ( ( ( _ _ _ _ _ o.( ) ( _ ) ) _ ) _ ) _ _ _ ) ) ( _ _ ( ( ( ( ( ( _ _ _ _ _ _ _ ) _ ( ( ) _ ) ( ( _ _ _ @.@._ _ _ _ _ "
};
