/* XPM */
static char *result[] = {
/* columns rows colors chars-per-pixel */
"32 32 183 2 ",
"   c #0E0A07",
".  c #1D1D1C",
"X  c #171715",
"o  c #242412",
"O  c #2B2D1B",
"+  c #35241A",
"@  c #333319",
"#  c #3B3D1E",
"$  c #363B1D",
"%  c #3B3D24",
"&  c #3B3F28",
"*  c #31322D",
"=  c #3C3D3B",
"-  c #363C32",
";  c #292927",
":  c #443A1D",
">  c #4B3C1D",
",  c #423917",
"<  c #50341F",
"1  c #533C24",
"2  c #504C1C",
"3  c #6C6018",
"4  c #75671C",
"5  c #4D4B24",
"6  c #4A4E29",
"7  c #464626",
"8  c #514120",
"9  c #4B5027",
"0  c #565828",
"q  c #43443D",
"w  c #4A4C3A",
"e  c #414135",
"r  c #544D30",
"t  c #4E503B",
"y  c #575A39",
"u  c #674228",
"i  c #634924",
"p  c #704D2F",
"a  c #78522B",
"s  c #66552A",
"d  c #5C632D",
"f  c #676528",
"g  c #676B2E",
"h  c #656B32",
"j  c #676E38",
"k  c #696A34",
"l  c #6D7537",
"z  c #717434",
"x  c #757B3A",
"c  c #7A7F3D",
"v  c #766724",
"b  c #4B4C46",
"n  c #4C4D4A",
"m  c #51514D",
"M  c #575847",
"N  c #545353",
"B  c #5E5F51",
"V  c #5E5D5D",
"C  c #565952",
"Z  c #62644C",
"A  c #63645E",
"S  c #636653",
"D  c #656767",
"F  c #676863",
"G  c #6A6965",
"H  c #6B6C69",
"J  c #6F706A",
"K  c #6E7065",
"L  c #72736D",
"P  c #787774",
"I  c #7A7975",
"U  c #7E7D7B",
"Y  c #8C552D",
"T  c #835732",
"R  c #935C35",
"E  c #92603F",
"W  c #946136",
"Q  c #A16435",
"!  c #FB7708",
"~  c #F87C08",
"^  c #FC7605",
"/  c #C9793C",
"(  c #97784A",
")  c #AD7C44",
"_  c #837F7C",
"`  c #7D853B",
"'  c #77813A",
"]  c #7F8640",
"[  c #97841B",
"{  c #9D8A29",
"}  c #848A3E",
"|  c #978930",
" . c #8B903E",
".. c #A79124",
"X. c #B19C29",
"o. c #B18137",
"O. c #A69730",
"+. c #B49731",
"@. c #B9A127",
"#. c #B9A43B",
"$. c #C49F12",
"%. c #F18F12",
"&. c #F6890A",
"*. c #C7AC17",
"=. c #C6A719",
"-. c #C9A513",
";. c #CCB21C",
":. c #F6AB14",
">. c #EDBE18",
",. c #F7B614",
"<. c #CEAF20",
"1. c #C6AD2C",
"2. c #CFB427",
"3. c #D7BA20",
"4. c #DFBC22",
"5. c #C8AF30",
"6. c #EDCD1E",
"7. c #E9C917",
"8. c #F7CD17",
"9. c #F5C614",
"0. c #F5D314",
"q. c #F8D716",
"w. c #F7D917",
"e. c #F5D51B",
"r. c #F9D719",
"t. c #F7D81A",
"y. c #FAD919",
"u. c #F9DB17",
"i. c #DFC530",
"p. c #E2C424",
"a. c #EFD124",
"s. c #EDD22B",
"d. c #F2D421",
"f. c #E8CB31",
"g. c #F9DD3C",
"h. c #808743",
"j. c #888D42",
"k. c #879041",
"l. c #8B9443",
"z. c #8E9842",
"x. c #919945",
"c. c #969D48",
"v. c #989E48",
"b. c #B09F45",
"n. c #9BA54A",
"m. c #9FA84D",
"M. c #9BA447",
"N. c #A4AD4E",
"B. c #A8AF4F",
"V. c #A6B04F",
"C. c #A6B150",
"Z. c #A9B050",
"A. c #938D6D",
"S. c #83827D",
"D. c #A49C6D",
"F. c #B9AC66",
"G. c #D38542",
"H. c #E08A41",
"J. c #C3B35C",
"K. c #858582",
"L. c #8A8986",
"P. c #8D8D8A",
"I. c #918D8C",
"U. c #92938E",
"Y. c #9C9A8F",
"T. c #969593",
"R. c #979A94",
"E. c #999A95",
"W. c #9C9B9A",
"Q. c #9A9695",
"!. c #AAABA6",
"~. c #A7A7A6",
"^. c #B4B3AF",
"/. c #B9BAB4",
"(. c #C2C1BF",
"). c #C8C7C5",
"_. c #CCCCCA",
"`. c #D9DAD4",
"'. c #E6E6DE",
"]. c #E4E4E2",
"[. c #ECECE4",
"{. c #F5F5F3",
"}. c #F8F7F3",
/* pixels */
"V.V.V.V.V.V.C.B.V.V.V.V.V.V.V.V.V.V.V.V.V.V.V.V.V.C.V.V.V.C.V.V.",
"V.V.V.V.V.V.V.B.V.V.V.V.V.V.V.V.z.m.V.V.V.C.V.V.B.C.V.V.V.V.V.V.",
"V.V.V.V.V.V.V.V.V.Z.V.V.Z.V.V.n.f g m.V.C.C.C.N.V.V.V.V.V.V.V.B.",
"V.V.C.B.V.V.V.V.V.V.V.V.V.V.V.} { X.z M.m.m.V.N.V.B.V.V.V.V.V.V.",
"V.V.V.V.C.V.V.V.V.C.V.V.V.V.x.# { a.X.0 2  .M.M.B.C.V.V.B.V.V.V.",
"V.V.V.B.N.C.V.V.V.V.Z.C.V.V.x.5 v ;.d.p.3.3 , 2 x.N.C.C.V.V.V.V.",
"N.C.V.C.V.V.B.V.V.V.V.V.V.V.N.l.| $.7.0.q.0.7.;.5 M.N.V.V.V.V.V.",
"B.C.V.V.V.C.N.C.V.V.V.V.V.V.C.N.z 4 -.9.q.q.w.w.5.h N.V.C.V.V.V.",
"V.V.V.V.C.B.V.V.V.C.C.B.V.V.B.N.d [ 7.y.@.F.g.e.1.g N.B.B.V.V.V.",
"V.V.V.V.V.C.V.V.V.N.V.N.V.V.C.N.0 =.9.0...r 2.7.o.a } B.B.N.V.V.",
"C.C.V.C.V.V.N.B.V.V.V.V.V.V.V.z.| %.^ &.>.p.p.( G.G.8 j.V.V.V.V.",
"V.V.C.N.V.V.V.C.V.V.C.V.V.V.V.k.O.:.^ ~ :.q.6.( ) G.<  .V.V.V.V.",
"V.V.V.V.V.V.V.V.V.C.V.V.V.V.M.y #.a.:.,.w.q.e.+.i < k v.V.V.V.V.",
"V.V.V.V.V.C.V.C.C.V.V.C.V.m.} * D.f.a.y.u.u.0.*.o z v.V.V.V.V.V.",
"C.B.N.C.C.V.V.V.B.V.V.V.N.k.e J P A.F.f.d.t.e.;.$ m.V.V.V.V.V.V.",
"V.V.C.B.V.V.V.V.V.V.V.V.x.w E.E.E.D S.T.F.s.e.;.# m.V.V.B.V.V.V.",
"V.V.V.V.V.V.B.V.V.V.V.l.Z P.E.E.E.`.b L.E.E.J.b.# N.V.V.V.V.V.B.",
"V.B.V.V.V.V.V.V.V.V.` M P.E.E.E.W.'.n L.E.E.E.S.@ N.V.V.V.V.V.V.",
"V.V.V.V.V.V.V.V.V.V.x C T.R.E.W._.{.N P.E.E.T.I @ n.V.V.V.V.V.V.",
"V.V.C.V.V.V.V.N.V.h.n U.R.R.E.!.{.{.N P.E.Q.T.F 9 N.V.V.V.V.V.V.",
"B.V.N.C.V.V.V.N.j.n T.E.E.W.!./.[.^.N T.W.W.T.O m.B.V.V.V.V.V.V.",
"V.V.V.V.V.V.N.c M P.E.W.~.).{.].K.b K.Q.T.T.D @ N.V.V.V.V.V.V.V.",
"V.V.V.V.V.V.] B P.E.T.!._.].(.G m D P.I.K._ - ` N.V.C.V.V.C.V.V.",
"B.V.V.V.V.l.w K.P.L.U N = = b H P P P L D w c V.V.V.C.V.C.V.V.V.",
"C.V.N.V.V.n.h X . . . q V D L I L H H n o ' V.V.V.V.V.V.V.V.V.V.",
"C.V.B.N.` j n I P.S.V y 7 7 m G ; & O h n.m.V.V.C.V.V.C.C.B.V.V.",
"B.N.h 9 S K P.P.n w l k.c.9 + E   @ p 5 5 k.N.V.V.V.V.V.C.V.C.C.",
"B.k.M A S.I e q j } m.V.g T Q / Y Y u R W s z.V.V.V.V.V.V.V.V.V.",
"V.} % & & % 0 x.N.V.V.V.y : 8 < > : @ , > : l.V.C.V.V.V.V.V.V.N.",
"V.m.n.n.n.n.N.V.V.V.V.V.N.n.n.n.n.n.n.v.n.n.N.C.V.V.V.V.C.B.C.C.",
"V.V.V.C.V.V.B.V.V.V.V.V.V.V.V.V.V.V.V.V.V.C.V.B.C.V.V.C.C.V.V.V.",
"V.V.C.C.V.N.V.V.V.V.B.V.V.V.V.V.V.V.V.V.V.C.C.C.V.V.V.V.V.V.V.V."
};
