/* XPM */
static char *result[] = {
/* columns rows colors chars-per-pixel */
"64 64 205 2 ",
"   c #030303",
".  c #0C0402",
"X  c #0B0B06",
"o  c #050509",
"O  c #070908",
"+  c #070909",
"@  c #0C0C0C",
"#  c #190703",
"$  c #140C04",
"%  c #110E0B",
"&  c #091405",
"*  c #0D1807",
"=  c #13120B",
"-  c #151609",
";  c #0D0D11",
":  c #0E1112",
">  c #131313",
",  c #1A1B17",
"<  c #2B0B03",
"1  c #2B1C0E",
"2  c #162A0A",
"3  c #1C360A",
"4  c #28220B",
"5  c #282725",
"6  c #2E302E",
"7  c #33322E",
"8  c #383836",
"9  c #53290D",
"0  c #52311D",
"q  c #5B341E",
"w  c #583524",
"e  c #623B20",
"r  c #254410",
"t  c #264A10",
"y  c #2A4D14",
"u  c #2D5415",
"i  c #375F19",
"p  c #35631A",
"a  c #37681D",
"s  c #3C6C1C",
"d  c #3D711D",
"f  c #355722",
"g  c #42771F",
"h  c #425736",
"j  c #7B553B",
"k  c #766B31",
"l  c #4D4D4C",
"z  c #545453",
"x  c #596254",
"c  c #7C6C55",
"v  c #6B6A67",
"b  c #776E64",
"n  c #73726E",
"m  c #716E70",
"M  c #767572",
"N  c #7A7774",
"B  c #7A7A75",
"V  c #7C7C7A",
"C  c #8F5E3D",
"Z  c #816F2B",
"A  c #996E38",
"S  c #957835",
"D  c #A36B3A",
"F  c #E96903",
"G  c #F76B07",
"H  c #FD6D05",
"J  c #E97503",
"K  c #FC7106",
"L  c #FE7309",
"P  c #956D47",
"I  c #8B6F50",
"U  c #877359",
"Y  c #817D7D",
"T  c #D77B43",
"R  c #4E8926",
"E  c #518D27",
"W  c #4E9A2F",
"Q  c #529B2F",
"!  c #59992A",
"~  c #4F9B33",
"^  c #529D32",
"/  c #529D38",
"(  c #54A12F",
")  c #5EA62E",
"_  c #54A132",
"`  c #5AA534",
"'  c #5CAB36",
"]  c #55A438",
"[  c #59A638",
"{  c #5CAB39",
"}  c #5EB135",
"|  c #60A42F",
" . c #61AD35",
".. c #64B435",
"X. c #6AB635",
"o. c #6DBD36",
"O. c #64B439",
"+. c #68B63C",
"@. c #66B939",
"#. c #6BBC3B",
"$. c #6EC13B",
"%. c #72C53C",
"&. c #76CB3D",
"*. c #7ACE3E",
"=. c #77D43D",
"-. c #7BD33E",
";. c #6DBB43",
":. c #7E807C",
">. c #73C441",
",. c #76C941",
"<. c #79CD41",
"1. c #7DD241",
"2. c #78D640",
"3. c #B58503",
"4. c #948432",
"5. c #9F903B",
"6. c #AE9535",
"7. c #C49B06",
"8. c #ED950C",
"9. c #D1A60D",
"0. c #D8AF15",
"q. c #EF8B3A",
"w. c #F48C39",
"e. c #80D23F",
"r. c #F7D30E",
"t. c #EFCE18",
"y. c #FEC71F",
"u. c #F1CD1A",
"i. c #F6D614",
"p. c #F9D615",
"a. c #F7D916",
"s. c #FAD916",
"d. c #F6D41A",
"f. c #FAD51B",
"g. c #F7D91C",
"h. c #FADA1A",
"j. c #ECC728",
"k. c #FECC29",
"l. c #F5D724",
"z. c #FADB22",
"x. c #F3D52C",
"c. c #FADB2B",
"v. c #EED135",
"b. c #F5D939",
"n. c #FBE132",
"m. c #AB9B4A",
"M. c #BCA74F",
"N. c #B6A557",
"B. c #82817D",
"V. c #8C897F",
"C. c #AB9C66",
"Z. c #A49B77",
"A. c #BAA961",
"S. c #DD884F",
"D. c #EA8C42",
"F. c #EF9346",
"G. c #EC924D",
"H. c #F49344",
"J. c #F4954A",
"K. c #F49A4F",
"L. c #D1BC54",
"P. c #EEAA4C",
"I. c #DB9466",
"U. c #D19B7D",
"Y. c #E09B73",
"T. c #80D443",
"R. c #DDC046",
"E. c #E4C647",
"W. c #E7CF5A",
"Q. c #EBD65B",
"!. c #F4D95A",
"~. c #E6D269",
"^. c #F4DB63",
"/. c #F7E26D",
"(. c #848481",
"). c #8C8C86",
"_. c #8C8D89",
"`. c #918F89",
"'. c #93938D",
"]. c #98998C",
"[. c #969694",
"{. c #999794",
"}. c #979994",
"|. c #999A95",
" X c #9B9B9A",
".X c #A09B89",
"XX c #A19F99",
"oX c #9EA19B",
"OX c #A1A29B",
"+X c #A19FA2",
"@X c #A7A6A4",
"#X c #B2B3AD",
"$X c #B8B9B4",
"%X c #E4D686",
"&X c #C0BFC1",
"*X c #CAC9C6",
"=X c #DBDAD8",
"-X c #EDEADC",
";X c #EAEAE5",
":X c #F0EFEA",
">X c #F8F8EF",
",X c #F6F6F2",
"<X c #F7F8F3",
"1X c #F9FAF4",
"2X c #FEFEFC",
/* pixels */
"-.-.-.-.e.e.-.-.e.-.e.-.-.-.=.-.-.1.-.-.2.-.2.2.e.2.e.e.-.1.e.e.-.2.-.2.e.2.T.2.-.-.T.-.-.-.-.-.-.-.e.-.e.-.-.-.-.-.-.-.-.-.-.-.",
"-.-.-.=.-.-.-.-.-.-.e.-.-.-.-.-.-.-.-.-.-.-.-.-.-.e.-.-.e.-.-.-.-.e.-.-.2.T.e.-.1.-.*.e.-.e.-.-.-.-.-.-.-.e.-.e.e.-.T.2.-.-.-.-.",
"e.-.-.e.-.e.-.-.e.-.-.e.-.-.e.-.-.e.-.-.-.-.e.-.-.2.e.-.-.e.e.*.-.e.e.-.e.=.2.-.-.T.e.-.-.-.-.e.e.-.e.-.1.-.-.e.-.-.e.-.-.-.-.-.",
"e.e.-.e.e.e.*.-.-.e.e.-.$.$.-.-.-.-.1.-.-.T.e.e.T.-.-.e.-.-.e.-.-.e.-.-.e.2.e.e.e.-.-.-.e.e.-.-.e.-.-.-.-.e.e.e.e.-.-.-.-.-.1.-.",
"e.-.-.-.=.-.-.=.*.*.<.<.' ' 1.-.*.-.e.<.*.-.T.-.2.e.-.e.-.e.-.-.-.-.&.-.e.e.=.e.e.e.-.e.e.1.1.2.-.-.-.&.-.-.-.e.1.1.-.$...<.2.T.",
"T.2.=...%.-.-.*.-.=.O.[ { $.-.-.-.-.*.' ' <.-.e.-.-.-.e.=.e.-.-.-.&...&.=.e.=.e.*.e.*.e.-.-.=.2.=.%.` O.-.-.-.1.2.-.2.#.] } &.-.",
"e.@.} ] $.-.&.O.$.*.{ _ _ %.-.1.1.-.<.` [ &.-.*.-.-.-.e.e.e.-.-.-.&...*.  ) e.e.e.-.*.*.&.*.>.$.%.` } %.e.-.-.%.#.1.2.1.@.` #.-.",
"e.$._ $.*.-.#.` $.*.' _ [ %.*.-.=.O.O.>.<.<.e.e.-.-.-.-.-.-.-.-.&.%. .&.- ) e.=.*.*.-.%.{ X.$.` ' ] +.1.-.*.e.o...-.-.1.$.] O.*.",
"1.*.&.1.T.-.%.,.*.-.&.%.%.*.-.-.*.' [ &.T.e.*.-.*.-.-.*.-.-.=...} ) u   t.5.@ *.*.-.*.%.` [ ' ] [ { +.e.-.-.-.*.&.T.-.e.<.O.` O.",
"-.e.-.-.<.-.-.T.-.1.-.-.*.e.-.*.*.&.&.*.-.e.e.-.e.*.-.-.e.=.=.=.%.%.p   u.x.b.% i e.e.*.&.&.$.%.%.%.*.-.-.*.=.-.-.-.-.-.e.*.%.&.",
"e.-.-.-.-.e.-.-.-.=.1.-.-.&.-.-.e.*.e.e.e.e.*.e.-.*.-.*.-.-.=.e.e.-.s   u.z.c.$ a e.-.-.-.-.-.-.-.-.-.-.*.e.-.*.-.-.e.-.-.1.e.-.",
"-.-.-.-.e.-.-.-.-.-.-.<.1.1.*.-.-.-.*.e.*.-.e.<.-.e.e.-.e.-.e.e.*.o O & c.z.z.z.~.; @ o   -.e.-.-.-.-.-.*.-.-.-.e.*.-.-.-.-.-.-.",
"-.-.-.-.-.<.-.*.*.-.*.-.-.-.1.-.-.*.<.-.-.-.-.-.*.e.-.-.=.e.=.=.-.@ %X~.< 4.z.l.b.!.Q.Q.W.2 * * & & -.-.1.*.-.-.*.e.-.e.-.-.-.e.",
"-.-.-.-.-.1.*.1.e.-.-.-.1.&.<.*.-.*.-.1.-.e.-.-.e.e.-.-.e.=.e.=.-.; ~.b.- 4.l.d.f.f.d.i.r.$         -.*.1.*.-.*.-.e.*.*.1.-.-.T.",
"-.=.=.-.-.-.e.-.-.-.1.*.-.<.2.-.-.-.1.*.-.-.-.-.-.-.-.e.e.=.=.=.-.-.p = l.t.7.f.p.s.s.r.p.a.a.a.l.z.$ : -.-.1.-.-.-.1.-.e.e.2.T.",
"-.-.=.-.e.-.-.-.e.e.1.-.1.1.-.1.*.-.-.-.-.-.-.-.-.-.-.-.=.=.e.=.-.-.o.! 4.6.7.0.9.r.p.s.p.r.p.i.h.h.Z k X.-.*.*.-.-.-.-.-.-.T.T.",
"-.-.-.-.-.-.-.-.e.e.e.=.e.e.=.e.e.=.=.=.e.e.=.=.=.2.e.e.=.=.=.e.-.-.-.=.  k t.3.3.r.a.i.s.s.s.s.i.s.f.^.o 1.-.-.=.*.*.<.-.-.e.T.",
"-.=.-.-.-.-.-.-.=.e.=.e.=.e.e.=.e.=.e.=.=.e.=.e.T.=.2.2.=.e.2.=.=.-.=.-.*...  t.p.p.i.z.d.z.h.z.h.h.s.^.o &.1.=.-.-.=.1.-.e.1.T.",
"-.-.-.=.-.-.-.e.e.=.=.e.e.e.=.=.=.=.=.=.=.=.e.=.=.=.e.=.=.e.2.e.-.-.-.-.&.! 4 f.p.s.z.z.L././.h.s.s.s.!.o 1.1.2.=.-.-.-.-.-.1.T.",
"-.-.-.e.-.e.=.-.e.=.e.=.=.=.=.e.e.=.=.=.=.=.=.e.e.=.=.=.=.2.e.=.-.-.-.-.  4.p.r.s.s.z.b.: ;X-Xg.z.s.h.!.  &.-.-.1.=.=.*.-.T.1.T.",
"=.e.=.e.e.-.-.=.e.=.=.=.=.e.=.=.e.=.e.=.e.=.=.e.-.-.=.-.=.-.-.-.-.-.-.-.  5.p.r.s.s.h.b.@ > - z.s.p.S A D.#   -.-.=.-.-.-.e.-.T.",
"e.=.e.=.-.-.-.-.=.=.e.=.=.=.=.e.=.e.=.=.=.=.=.e.-.=.=.-.-.-.-.-.-.-.=.2.X m.f.k.y.k.z.b.$ X $ g.l.j.A D q.< . 2.-.-.-.-.e.T.1.T.",
"=.e.e.-.=.-.=.-.=.=.e.=.=.=.=.=.=.e.=.e.e.=.=.e.-.-.-.-.-.=.e.=.-.-.d & c.k.K H K K h.s.h.s.s.p.E.c q.w.D.F.G.o -.-.1.-.*.-.1.T.",
"=.e.=.=.-.-.-.=.=.=.=.e.=.=.=.=.e.=.e.=.=.e.=.=.-.-.=.-.-.-.=.=.-.-.d = n.k.L K H H J J r.p.i.p.R.U P A F.q.G.; =.-.-.-.e.1.1.T.",
"=.=.=.e.=.e.=.=.=.=.e.=.=.=.=.=.=.=.=.e.=.e.e.e.=.-.=.-.-.=.=.e.=.=.d & n.k.L L H H G F d.p.p.p.E.U I I K.H.G.o -.-.-.-.-.-.T.T.",
"e.=.=.=.=.=.=.=.=.=.=.e.=.e.e.=.=.e.=.=.=.=.=.-.-.-.-.&.-.-.=.=.=.-.p X z.h.h.H H H f.p.d.i.a.i.E.U P.P.@ I.G.o -.-.-.=.-.-.T.<.",
"e.=.e.=.=.e.e.e.=.e.=.e.=.=.e.=.e.=.=.=.=.=.=.e.-.-.=.=.=.-.-.=.=.X.h 7 g.g.g.8.8.8.f.s.p.s.i.h.v.6.A P ; j C  .-.=.-.-.T.*.e.T.",
"=.=.e.=.e.=.=.o.=.e.e.o.e.=.=.e.=.=.e.=.=.e.=.=.=.-.-.-.-.=.=.-.=.O `.`.l.f.i.g.s.h.h.h.p.i.a.i.s.f.@ o + ; @ 1.-.=.-.-.*.e.-.1.",
"e.=.e.o.e.e.=.e.e.=.e.=.e.=.=.=.=.=.=.=.=.e.e.=.-.=.=.=.=.e.=.-.-.o '.].`.M.h.h.h.i.h.h.h.h.a.i.h.t.. t -.-.=.-.-.-.-.-.e.e.1.T.",
"e.-.=.=.e.=.=.e.=.e.e.=.e.=.=.=.=.=.e.=.=.e.=.=.-.-.=.e.=.=.-.=.&.@ `.V.).m.v.b.c.h.s.h.s.h.h.g.s.u.  t =.-.-.-.-.-.-.-.-.-.<.T.",
"=.-.=.=.=.=.=.=.=.=.e.e.=.=.=.=.=.=.=.=.=.=.e.e.=.o.e.=.e.e.e.& X n n v M B ].|.N.f.s.h.h.z.h.a.p.d.  t -.-.-.*.e.*.-.e.e.-.e.T.",
"-.-.=.e.=.e.=.e.=.e.e.=.=.e.=.=.=.=.e.=.=.e.=.=.=.e.e.e.=.o.2 Z. X{.].|.OXB.l XX].Z.Z.C.g.h.h.h.p.p.o t -.-.-.-.-.e.-.e.e.-.<.T.",
"*.*.=.=.*.-.-.*.=.-.-.-.*.=.-.=.-.=.=.-.=.-.-.-.=.-.-.-.=.%.; oXOX{. X}.|.B.f +X X].|..Xx.x.x.h.h.h.+ y -.-.-.-.*.*.*.e.e.e.-.e.",
"-.-.-.-.=.-.-.=.-.-.-.=.-.=.-.=.-.=.=.=.=.=.=.2.=.-.-.-.X 5 }.}.|.|.XX|. X#X<Xo   |.].'.{.{..Xz.h.z.% y -.-.-.-.-.-.-.-.e.-.-.-.",
"*.=.-.-.-.-.=.-.-.*.-.-.-.-.*.-.=.-.=.=.2.=.=.=.-.=.&.E  XoX X|.|. X|.|.{.#X<Xo   [.|.|.|. X|.N.N.A.% u =.-.-.-.*.-.-.e.T.-.e.T.",
"-.-.-.-.-.=.-.*.-.-.-.-.*.=.=.-.=.=.=.-.2.-.=.=.=.-...+ |.oX[.}.|.|.{. XXX$X<Xo   ].|. X|. XOX}. X X@ u -.-.-.*.*.e.e.-.-.-.e.T.",
"=.-.-.=.=.-.-.=.=.-.-.=.-.-.-.-.-.=.=.=.-.-.-.-.-.  B '.}. X X X X|.|. X X$X2X;    X|.{. X X X X|.|.  r -.=.=.-.-.e.e.-.e.-.1.T.",
"-.-.=.=.-.-.-.-.-.-.-.-.&.=.-.=.-.=.=.=.2.=.=.=.-.  :.'.}.[. X[. X|. X@X=X*X2X> o  X|.}. X|.|.|. X'.  3 -.-.-.-.e.e.-.e.-.-.1.T.",
"e.=.=.e.-.-.=.-.=.-.-.*.-.-.=.-.=.-.-.2.2.=.=.=.=.+ :.|. X[.[. X|. X X X2X2X2X> ;  X[. X|.|.|. X{.[.  3 -.-.=.-.-.-.-.-.-.1.1.T.",
"=.e.=.=.-.-.-.-.*.-.-.-.-.*.=.-.-.2.2.2.2.=.=.u @  X}.|.[. X[. X|.[.:X2X2X2X2X> ;  X|.|.|.|.[.[.[.'.  3 -.-.*.-.-.e.-.-.1.1.<.T.",
"e.-.e.=.=.e.=.e.-.-.-.-.<.-.2.=.-.2.2.2.=.=.=.y : +X X X X[.[.[.[.[.;X1X2X2X2X> %  X X X X X[.[.[._.2 p -.-.-.-.-.-.-.-.-.-.e.T.",
"-.-.=.e.e.=.=.=.-.=.-.-.-.-.=.1.-.=.-.=.-.o.@ @X X X XoX X X[.[.[.'.;X1X<X=X*X> ; @X X X X X X XB.  =.-.=.-.=.=.-.T.-.e.e.-.T.1.",
"=.=.o.=.e.=.e.=.-.-.-.-.=.-.=.-.=.=.-.-.2 , OX X|. X X X X X[.,X1X1X1X>X&Xl   }.+X X X+X|.[. X X).o -.=.-.=.-.-.-.-.e.e.-.T.-.T.",
"=.e.e.e.=.=.e.=.-.-.-.-.-.-.-.=.-.=.-.=.  o {.|. X X X X X X X2X1X>X>X,X*Xx   '.[. X X X X X@X X).@ -.-.-.-.-.*.1.-.*.-.e.-.T.<.",
"=.e.e.o.o.e.=.=.-.=.-.-.-.e.-.-.-.-.%.o |.[.[.|. X[. X X+X@X2X2X2X1X*X&X  w v _.[.{. X X X[. X@ @ @ 2.-.*.-.=.-.<.-.-.*.-.-.T.T.",
"e.=.e.e.e.e.=.e.-.=.-.-.-.-.=.=.-.u f  X|.|. X[. X}.&X;X,X,X2X=X=X5 , , :.V m [.[.[.M M Y V _.@ ! -.=.-.-.=.*.-.e.*.1.e.-.e.<.T.",
"=.=.=.=.e.=.=.e.-.=.-.-.-.2.=.-.-.X >  X[. X|.|.}.`.*X1X,X,X2X=X;X: @ ; :.V m [.[.'.M V Y V (.@ ) -.-.-.-.-.-.-.-.-.*.-.*.T.T.<.",
"=.e.e.=.=.=.e.=.-.-.e.-.-.-.-.E   oX X X X X X X[.m 6     o + X @ Y (.V V V m m m m M M M o   2.-.=.=.-.*.-.=.-.-.-.*.*.e.T.T.T.",
"e.e.=.e.=.=.=.=.e.=.e.=.e.e.=.o.d :.M B :.V B Y B z 8 , , 5 5 6 6 V V V V B B B M n z z z g E -.-.-.=.-.-.-.-.*.-.=.-.-.e.-.e.T.",
"e.=.e.=.e.e.e.e.e.e.e.=.=.=.e.e.-.  o         o     v B n v v n M N V V :.:.:.B V n       -.-.2.=.-.-.&.-.-.=.-.-.-.-.-.e.e.e.<.",
"=.e.e.=.=.e.-.e.=.=.=.=.=.e.=.g O O 7 [.}.[.{.[.[.[.R         M m M V :.@ : : @ @ @ =.-.-.-.=.-.=.-.-.-.-.*.-.-.-.*.=.-.T.-.e.T.",
"e.=.e.e.e.e.=.-.e.e.e.e.-.-.=.R > @ 8 {.[.[.[.[.[.[.) * O   & N M M B.(.@ = : @ : * -.-.-.-.-.-.-.-.-.-.-.-.-.-.*.-.-.-.-.1.1.T.",
"=.e.=.e.=.e.e.-.-.-.-.-.X   O ).[.[.[.[.[.}.}.    O ) -.-.-.-.    b .     ! -.@ , =.=.-.e.-.-.-.=.-.-.-.-.-.*.-.-.-.-.-.e.-.e.1.",
"=.e.o.=.=.e.o.&.o.& & * Z.`.].].[.[.[.[.X   @ -.*.-.&.$.*.o.3   . T #       - I.U.= - - - e.<.&.<.$.&.T.-.*.*.&.$.-.-.-.-.-.1.T.",
"e.e.) o.e.=.) $.'       }.}.}.}.[.[.[.[.+ @ O $.X.*.%.) X.| . . # w.<       . S.Y.$ $ $ - T.>...;.^ O.T.-.-.*.+.) %.-.-.-.<.1.1.",
"o.e.) o.o.=...o.o {.[.[.}.'.'.x         -.=...` ^ ' ' Q X 9 H.H.H.w.w.w.w.w.q.$ < K.J.J.H.1 : ` ` [ X.T.e.e.&. .Q ` +.#.%.<.T.T.",
"..+.` _ Q O.' '   a a a R E E 2 O X.%.*.-.&._ ( ^ W Q ^ + # q e q q 0 0 0 w w   . w q q q # @ _ _ _ ' >.1.1.>._ Q ~ ` ` _ ..$.1.",
"( _ _ _ _ _ _ _   o O         + O ` o.*.1.&.` ( _ _ W ^ o . @ @ O O O O o               o   @ _ _ _ _ O.<.@.' _ Q ~ W ~ ~ ~ } <.",
"^ ( ( _ ( Q ^ ( ( Q W Q o.&.&.] ! ^ ^ >.%.+.` _ _ ^ ~ W Q ^ ~ Q ^ ^ _ _ ( Q Q ^ Q / / Q Q W Q ^ _ _ _ O.,._ _ ^ ^ ~ ~ ^ ~ ~ _ +.",
"Q Q ..' ^ _ _ @.' ( _ Q ( %.&.` ^ ^ ^  .( _ ( ( ` Q ^ ( O.Q ^ ^ Q ^ ' O._ ` ^ ( Q Q Q ^ Q ` ' Q _ ^ _ ` ' _ ( ^ ` ..Q _ _ ( _ ' ",
"^ ~ | ^ ^ Q ^ O.` ( ( ^ ^ ' ..^ Q Q ~ ^ ^ ^ _ _ _ ( _ _  .^ ^ Q ~ ^ _ ' _ ( ( ^ ^ ^ ! ^ ^ ^ ` Q ^ ^ ^ ^ _ ` _ _ ` ' _ ( _ _ _ _ ",
"^ Q Q / ^ Q ^ ^ _ ^ _ _ _ _ ^ Q Q ~ E ^ Q ^ _ ^ Q ( Q _ Q ^ ^ Q Q ^ ^ ^ ^ _ ` ^ ^ ^ ` ^ ! Q Q Q ^ ^ ^ ^ ~ _ ~ ~ _ ~ _ ` ( ( _ ~ ",
"/ ! Q ^ / ^ Q W _ ^ ( _ _ _ ^ W ^ / ^ ^ ^ ^ _ ^ ^ _ _ ( Q ^ ~ W ~ ~ ~ ~ ^ ^ ^ ^ ^ ^ ^ ^ / ^ Q ~ ^ ^ ^ ^ ~ _ ^ ^ _ _ / ~ ~ _ _ ~ ",
"~ ~ ~ / ~ ~ ~ ^ / / / / / / ~ ~ ~ ~ ^ / ^ ^ ~ ^ / / ^ / / ^ / / ~ ~ ~ ~ ~ ^ / / / / / / ^ / / ~ / / ^ ^ ~ ~ / / ] ] _ _ ] / ~ / "
};
