/* XPM */
static char *result[] = {
/* columns rows colors chars-per-pixel */
"64 64 185 2 ",
"   c #010100",
".  c #090B05",
"X  c #0D0907",
"o  c #170E04",
"O  c #061202",
"+  c #0C1D03",
"@  c #1A1403",
"#  c #271700",
"$  c #291700",
"%  c #271800",
"&  c #102404",
"*  c #162C06",
"=  c #1A3408",
"-  c #282507",
";  c #2B2A06",
":  c #2C380C",
">  c #5D3501",
",  c #25460E",
"<  c #364C0E",
"1  c #2B4E11",
"2  c #2C5212",
"3  c #2F5A15",
"4  c #325B16",
"5  c #3D5C15",
"6  c #366318",
"7  c #39661A",
"8  c #3B6B1A",
"9  c #3C701C",
"0  c #5B540F",
"q  c #5F5712",
"w  c #6F4000",
"e  c #7A5E0C",
"r  c #675E12",
"t  c #416419",
"y  c #42761F",
"u  c #62751C",
"i  c #5F4237",
"p  c #6C5137",
"a  c #467C22",
"s  c #487B21",
"d  c #795547",
"f  c #7D5846",
"g  c #894E00",
"h  c #8C5300",
"j  c #975900",
"k  c #995900",
"l  c #84630D",
"z  c #806C13",
"x  c #967312",
"c  c #AC6D07",
"v  c #B96E06",
"b  c #B87406",
"n  c #BB7C16",
"m  c #8F5924",
"M  c #92613B",
"N  c #B8762E",
"B  c #A56A37",
"V  c #C57602",
"C  c #CA7700",
"Z  c #CC7800",
"A  c #D37D00",
"S  c #C0772C",
"D  c #936142",
"F  c #926F46",
"G  c #937447",
"H  c #7C831D",
"J  c #4A8424",
"K  c #4E8A25",
"L  c #518A27",
"P  c #528C26",
"I  c #4D9529",
"U  c #4F9B2F",
"Y  c #529227",
"T  c #56952A",
"R  c #529B2F",
"E  c #5B9E2D",
"W  c #4F9B32",
"Q  c #529D32",
"!  c #529D38",
"~  c #6A8A23",
"^  c #54A12F",
"/  c #5DA32E",
"(  c #5DA92E",
")  c #54A232",
"_  c #5AA534",
"`  c #5CAB35",
"'  c #55A438",
"]  c #59A638",
"[  c #5CAB39",
"{  c #5EB232",
"}  c #5FB038",
"|  c #62A42E",
" . c #60A92F",
".. c #60A730",
"X. c #62AC33",
"o. c #61AF39",
"O. c #64B335",
"+. c #6AB535",
"@. c #6CBB36",
"#. c #64B439",
"$. c #67B739",
"%. c #66B939",
"&. c #6BBC3B",
"*. c #72BF37",
"=. c #6CC136",
"-. c #6EC13A",
";. c #72C136",
":. c #72C53B",
">. c #75CB3C",
",. c #7ACE3E",
"<. c #77D43D",
"1. c #7BD33E",
"2. c #758F41",
"3. c #6DBB43",
"4. c #72C341",
"5. c #76C941",
"6. c #79CC41",
"7. c #7DD241",
"8. c #8E831F",
"9. c #878320",
"0. c #8E8320",
"q. c #978A27",
"w. c #828938",
"e. c #B5AB2E",
"r. c #DD8300",
"t. c #E48800",
"y. c #ED8D00",
"u. c #F18F00",
"i. c #EF900F",
"p. c #F69300",
"a. c #FE9700",
"s. c #FF9901",
"d. c #F9980A",
"f. c #E58A12",
"g. c #EC8E14",
"h. c #EB8E19",
"j. c #E89717",
"k. c #FFA109",
"l. c #FFA510",
"z. c #F8AE19",
"x. c #FFB31C",
"c. c #FDBA1D",
"v. c #C09F21",
"b. c #CABB2F",
"n. c #FFBF21",
"m. c #E7BE34",
"M. c #80D23F",
"N. c #FEC01E",
"B. c #D5C431",
"V. c #D9C731",
"C. c #FFC624",
"Z. c #FFC823",
"A. c #FDCA2A",
"S. c #FED62E",
"D. c #FFD82F",
"F. c #ECD63A",
"G. c #E9D23E",
"H. c #FFDC33",
"J. c #FFE236",
"K. c #F4E138",
"L. c #FBE63B",
"P. c #FFEB3C",
"I. c #A48644",
"U. c #BBB05F",
"Y. c #80D443",
"T. c #D5C747",
"R. c #FFEC44",
"E. c #FFEC49",
"W. c #FFED53",
"Q. c #FFEE5E",
"!. c #FEEE61",
"~. c #FFEE69",
"^. c #FFEF72",
"/. c #E4DA87",
"(. c #FFF18B",
"). c #FEF193",
"_. c #FFF39C",
"`. c #FEF6A5",
"'. c #FFF5B0",
"]. c #FEF6C1",
"[. c #FFFBD8",
"{. c #FFFBE4",
"}. c #FFFDEE",
"|. c #FEFEF1",
" X c #FFFFFE",
/* pixels */
"1.1.1.<.M.1.1.7.1.1.1.1.1.1.<.1.7.1.1.7.M.1.<.Y.<.1.Y.1.1.7.Y.M.1.1.1.1.1.7.<.Y.7.1.1.1.1.1.1.1.1.1.1.1.M.1.1.1.<.1.1.1.1.1.<.Y.",
"1.1.1.1.1.1.M.1.1.1.M.1.1.1.1.1.1.1.1.<.1.<.<.1.Y.M.Y.1.M.1.1.1.1.1.1.1.1.<.Y.<.1.1.Y.1.1.M.1.1.1.1.1.1.1.M.1.M.M.1.7.1.1.<.1.1.",
"1.M.1.1.1.M.1.1.M.1.1.M.7.1.M.1.1.1.1.1.1.1.M.1.1.1.1.1.1.M.1.1.1.M.1.<.1.1.<.Y.M.7.1.M.M.1.1.M.1.M.M.1.7.1.1.M.1.7.M.1.<.1.1.1.",
"M.M.1.M.M.,.1.1.1.M.M.1.-.-.1.1.,.1.7.1.1.Y.M.1.<.1.1.M.1.1.M.1.1.Y.M.:. .T T <.1.M.1.1.1.M.1.1.M.<.M.1.1.M.M.1.M.1.1.1.1.1.7.1.",
"M.1.1.<.<.1.1.,.1.1.,.,.} } 1.1.,.7.1.,.,.7.Y.M.Y.<.1.M.1.1.1.1.1.1.,.O.Y 8 8 *.1.M.,.1.1.1.7.7.1.1.<.,.1.1.M.7.7.7.7.-.%.6.7.1.",
"7.7.7.{ :.1.1.<.,.,.#.] ] -.1.1.1.1.,.o.` ,.1.,.1.M.M.M.1.Y.1.1.1.>.+./ 8     @.,.M.M.M.1.7.<.6.1.:._ #.,.1.1.Y.7.<.7.=._ } 6.<.",
"Y.=.` ` -.1.6.#.-.,.` ! ' :.1.7.1.1.6.] ] >.M.1.1.1.1.1.1.1.1.1.,.:.` E 7     @.M.1.1.,.,.1.-.-.:.[ [ :.1.1.1.:.%.7.7.7.%.) -.<.",
"M.=.' %.7.1.%._ -.,.` ' _ :.,.<.<.%.} 4.5.7.M.,.1.1.1.1.M.1.1.1.O.3 1 , *     +.,.1.1.:.] $.-.] ` ] %.7.1.1.,.@.%.<.7.7.-.' #.,.",
"Y.,.,.6.7.1.:.5.6.1.5.:.:.,.1.1.,.` ` 6.Y.1.1.1.1.,.1.,.1.1.,.{ I             +.M.,.M.:.' _ ] ' ] _ &.M.M.1.,.,.,.7.1.M.6.$.' $.",
"1.M.1.1.7.1.7.1.1.<.1.1.,.1.1.,.,.:.:.7.1.M.M.6.1.1.1.,.1.<.6.:...    = , 1 1 @.M.M.1.,.:.>.:.5.5.:.6.,.1.1.<.1.<.1.1.1.M.,.:.,.",
"M.1.1.1.1.7.1.1.1.<.7.1.1.,.1.1.M.1.1.M.M.M.,.M.,.M.1.1.1.1.1.1.O.    4 s P P ;.1.1.1.1.1.1.1.1.1.1.1.<.,.M.<.1.1.,.1.1.1.1.1.1.",
"1.1.1.1.1.1.1.1.1.1.1.7.7.7.,.<.1.,.M.1.,.1.Y.,.M.1.M.1.M.1.1.,.X.    L +.,.M.6.M.1.1.1.1.M.M.Y.1.1.1.1.1.1.<.1.1.1.1.1.1.1.1.1.",
"1.1.1.1.1.6.1.1.,.1.,.1.6.1.7.<.1.,.6.1.7.,.7.1.,.1.M.1.7.1.1.1.+.    L &.1.Y.,.1.1.1.Y.1.1.M.1.7.1.,.1.7.1.1.,.,.1.1.M.7.7.1.1.",
"1.1.1.<.1.7.,.7.1.1.1.1.1.6.,.1.,.<.1.7.1.,.1.1.M.1.+.E E _ E E J     8 L E E >.1.M.M.1.1.1.1.1.7.1.1.,.6.1.,.1.1.M.,.1.1.1.1.Y.",
"1.1.<.1.1.1.1.M.M.1.7.,.<.6.7.1.1.,.7.6.7.1.7.1.1.,.s + + + + + O     O + + + @.M.Y.1.M.1.7.1.1.1.1.1.1.1.1.6.1.7.1.7.1.M.M.Y.7.",
"1.<.<.1.M.1.1.1.Y.1.1.7.7.7.1.7.1.7.1.<.1.,.1.1.1.>.a                         @.7.,.1.,.1.7.1.1.,.M.1.1.1.,.1.1.1.1.1.1.1.1.1.Y.",
"1.<.<.M.1.1.1.1.Y.1.M.1.1.M.1.1.1.1.<.>.>.>.>.>.>.-.a + @ X X X X X X o o @ @ O.:.:.:.5.>.,.1.1.7.M.7.1.6.1.1.1.<.,.<.,.,.1.M.Y.",
"1.1.<.1.1.1.1.1.1.1.1.1.1.1.1.<.7.1.<.+.J J J J K J e.b.b.p p i i i i m v C C H L K K J J ..7.7.,.1.1.1.,.<.1.1.<.1.1.7.7.1.Y.Y.",
"1.1.1.<.M.M.<.M.M.Y.1.1.M.M.<.1.<.<.>.(           @ B.P.G.G f f d d d N f.a.s.h           P 7.7.7.7.M.6.6.<.7.1.<.<.7.,.1.1.7.Y.",
"1.1.1.M.1.<.M.<.<.1.1.1.1.<.<.1.<.>.=./ 0 0 0 0 0 q V.P.F.I.G G F D D N j.l.l.k > > > > > ~ :.5.:.,.1.M.7.7.<.1.7.1.1.<.1.7.7.Y.",
"M.<.<.M.<.M.1.<.1.1.1.<.<.<.<.>.s 7 t H B.V.B.V.V.V.K.P.L.G.G.G.m.f.h.z.A.H.H.j.A r.A r.r.c 7 7 a O.6.<.7.1.1.<.1.1.1.1.1.M.1.Y.",
"<.<.M.<.M.<.1.<.<.<.<.<.<.<.<.:.2 * : 9.K.K.K.K.K.K.P.P.P.L.L.K.A.d.u.n.D.L.L.z.p.p.p.p.p.V * * 4 ..1.<.1.<.<.7.<.<.1.1.M.Y.7.Y.",
"M.M.<.M.<.1.1.<.<.<.1.<.<.<.<.>.,   - 0.P.P.P.R.P.P.R.P.P.P.P.P.S.a.a.n.D.P.P.x.s.s.a.a.a.C     2 ..7.7.1.1.7.1.1.1.7.1.M.7.7.Y.",
"M.<.<.M.<.1.M.<.<.<.1.<.<.<.<.:., . ; 0.P.P.^.(.).).(.(.(.E.P.P.D.x.x.A.H.P.P.C.x.x.l.s.s.Z     2 ..7.1.1.<.<.1.1.<.1.1.1.1.7.Y.",
"<.<.<.M.<.M.<.<.<.<.M.<.<.<.<.:.,   - 0.P.P.].|. X X X X{.!.E.P.L.P.P.P.P.P.P.P.P.J.Z.k.s.C     2  .1.<.<.1.<.7.1.1.1.1.1.1.Y.Y.",
"<.M.<.<.M.;.<.<.<.<.M.<.1.<.1.:.,   - 0.P.P.]. X X X X X{.!.E.P.P.P.P.P.P.P.P.P.P.J.Z.k.a.C     2 ( <.<.7.1.1.1.1.1.<.1.1.1.Y.7.",
"M.<.M.<.M.<.<.<.<.M.<.M.;.+. . .9.z q.U._._.[. X X|.[.].'.E.P.P.P.R.P.P.P.P.P.P.P.J.A.k.s.A h g e ~ ( ` >.<.7.1.1.<.7.1.M.1.1.7.",
"<.M.<.<.<.<.M.M.;.<.M.<. .K 8 u B.B.T./.[.[.}. X X|.`.~.Q.R.P.P.P.P.P.P.P.P.P.P.P.J.Z.k.a.y.A A b e 6 9 -.1.<.7.1.<.1.<.1.M.6.Y.",
"M.<.<.<.M.<.<.<.M.M.<.M.( 9   r R.L.W._. X X X X X|._.P.P.P.P.P.P.P.P.P.P.P.P.P.P.J.Z.k.a.a.s.a.t.k . = @.1.<.1.1.1.1.1.1.7.7.Y.",
"M.<.M.<.M.<.M.<.<.<.M.M./ 8   r K.L.W.`. X X X X X|.).P.P.P.P.P.P.P.P.P.P.P.P.P.P.J.Z.s.a.a.a.s.r.k   = @.<.1.1.1.1.,.1.1.M.6.Y.",
"<.M.<.<.<.<.<.M.M.M.<.<./ 8   r K.P.W._. X X X X X}.).P.P.P.P.P.P.P.P.P.P.P.P.P.P.J.Z.k.s.a.s.s.r.k   = @.1.1.1.M.,.1.M.1.7.M.Y.",
"M.;.M.<.<.M.M.;.<.<.M.M.E 8   r K.L.W.`. X X X X X}._.L.P.L.P.P.P.P.P.P.P.P.P.P.P.J.Z.k.a.a.s.s.r.k   = @.1.1.1.1.M.1.M.M.1.,.Y.",
"<.<.1.1.1.,.1.1.<.1.1.1.E 8   r K.P.W.).}.|.|.{.}.{.(.P.P.P.P.P.P.P.P.P.P.P.P.P.P.J.Z.s.s.s.a.a.t.k   = @.1.1.1.,.1.,.M.1.M.1.M.",
"<.1.1.1.,.1.,.<.1.1.1.1.E 8   r K.P.E.^.`.`.`.`.`._.~.P.P.P.P.P.P.P.P.P.P.P.P.P.P.J.Z.k.a.s.a.a.r.k   = @.1.1.1.,.1.1.M.M.1.1.M.",
"<.M.<.<.1.1.1.1.1.<.1.1./ 6   r K.P.P.E.!.!.Q.Q.Q.Q.E.P.P.P.P.P.P.P.P.P.P.P.P.P.P.J.Z.k.s.a.a.s.r.k   = @.1.1.1.,.1.1.1.M.1.M.Y.",
"1.1.<.1.<.1.,.<.1.1.1.1.^ 8   r K.P.P.P.P.P.P.P.P.P.P.P.P.P.P.P.P.P.P.P.P.P.P.P.P.J.Z.k.a.a.a.a.t.k   = @.M.<.,.M.1.M.1.M.1.Y.7.",
"1.<.M.<.<.1.1.1.<.<.1.1./ 8   r K.P.P.P.P.P.P.P.P.P.P.P.P.P.P.P.P.P.P.P.P.P.P.P.P.J.Z.k.a.a.a.a.r.k   = @.1.<.1.1.Y.M.1.1.1.7.Y.",
"1.;.M.<.1.<.1.1.<.1.<.1.E 8   r K.L.P.P.P.P.P.P.P.P.P.P.P.P.P.P.P.R.P.P.P.P.P.P.P.J.Z.k.a.a.a.a.r.k   = @.1.1.1.M.1.1.1.1.7.7.7.",
"<.M.<.<.1.1.1.1.1.1.1.1./ 8   r K.P.P.P.P.P.P.P.P.P.P.P.P.P.P.P.P.P.P.P.P.P.P.P.P.J.A.k.a.a.a.a.r.k   = @.1.<.1.1.M.1.7.1.7.Y.Y.",
"M.<.M.<.<.1.<.1.,.1.1.1./ J 3 u B.V.V.F.H.J.J.P.P.P.P.P.P.P.P.P.P.P.P.P.P.P.P.J.H.S.N.s.a.u.r.r.b l 4 7 @.1.1.1.1.1.1.1.1.7.7.7.",
"<.M.<.;.M.M.<.M.7.1.1.<.&.X./ | 8.q.q.v.N.C.S.P.P.P.P.P.P.P.P.P.P.P.P.P.P.P.P.A.n.c.z.s.s.r.j j l ~ / ( :.1.1.1.1.M.1.1.1.1.1.Y.",
"<.<.<.M.M.<.M.<.<.1.1.1.1.1.1.:., . $ h s.s.A.J.P.P.P.P.P.P.P.P.P.P.P.P.R.P.P.x.a.a.s.s.s.C     1 ` 1.<.<.1.1.1.Y.1.1.M.M.M.Y.7.",
"M.<.<.<.<.M.<.<.1.<.1.1.1.1.1.:.,   % h a.a.A.P.P.P.P.P.P.P.P.P.P.P.P.P.P.P.L.n.a.a.s.a.s.C     1  .<.1.7.<.<.1.1.1.1.1.1.M.1.Y.",
"<.M.<.M.<.<.<.M.1.1.<.1.1.1.<.:.,   % h s.s.k.x.x.x.x.x.x.x.c.x.x.x.x.x.x.x.x.s.a.a.a.s.s.C     1  .1.1.1.1.<.,.1.1.,.Y.1.1.Y.6.",
"<.<.M.;.M.<.<.M.1.<.1.1.1.1.<.>.,   # h a.a.a.s.s.s.s.s.s.s.s.s.s.s.s.s.s.s.s.a.a.s.a.a.a.C     2  .1.1.1.<.<.1.6.,.1.1.M.M.Y.6.",
"M.M.<.M.<.M.<.<.1.1.1.1.1.1.1.:.2 & ; h p.a.a.a.a.a.a.a.s.s.s.s.p.a.a.s.a.s.a.s.s.a.a.p.p.V & & 4  .1.1.1.>.1.1.1.,.Y.,.7.1.Y.Y.",
"<.<.M.<.<.<.M.<.<.<.1.<.<.1.1.:.8 4 5 l t.r.y.a.a.a.s.s.p.i.h.h.h.g.g.i.a.a.s.s.a.a.y.r.r.b 4 4 y  .<.1.1.1.1.1.1.M.,.1.1.Y.6.Y.",
"<.M.<.<.M.M.M.;.1.1.M.1.1.1.1.1.>.:.@.| > > V p.s.s.s.s.h.B D D D D D S f.a.a.a.a.y.c w > ~ -.:.>.<.1.<.1.<.<.1.1.1.1.1.M.Y.6.Y.",
"M.M.M.<.M.<.<.<.M.<.M.<.<.M.<.M.<.7.>./     V p.s.a.a.s.i.M p f d d d N f.s.s.s.s.y.h >   K <.1.1.<.<.<.1.<.1.<.1.<.1.1.1.1.Y.Y.",
"M.<.<.M.M.<.M.M.M.<.M.<.M.<.M.<.1.<.>.@.J J x V Z Z Z C S w.w.2.2.2.2.q.n Z Z Z C b e J J X.<.7.1.1.1.<.,.1.1.1.1.,.1.1.M.M.Y.6.",
"M.<.M.M.M.M.<.M.M.<.<.M.<.M.<.M.1.1.1.1.=.-.P ; $ $ $ $ 5 O.=.:.*.:.:.E t # $ $ % < K @.:.>.<.1.<.1.1.<.1.1.1.1.1.,.1.1.M.M.Y.Y.",
"<.M.M.<.<.M.M.<.M.M.M.<.M.M.<.<.1.<.1.<.1.1.T *         6 *.1.1.6.6.1.| 8         1 Y >.1.1.<.<.1.1.1.1.1.1.1.1.1.<.1.1.1.7.Y.6.",
"<.M.M.M.<.M.1.M.M.M.M.M.M.M.<.M.1.7.<.7.1.1.T * O O O O 6 ;.,.1.1.1.1. .8 O O O O 2 Y >.1.1.1.7.1.1.M.1.<.1.1.1.1.<.<.1.1.7.M.7.",
"<.M.;.<.M.M.=.;.=.{ <.M.<.M.M.<.<.1.7.1.1.<.1.1.M.M.,.=.1.1.1.1.M.1.7.:.:.7.7.1.1.1.,.<.<.7.7.:.>.:.:.Y.M.,.,.:.:.,.1.1.1.1.7.Y.",
"M.<.( ;.M.<. .;.( E =.{ <.;.M.<.1.1.<.7.1.1.<.=.$.,.>.^ +.,.1.1.1.7.$._ ` @.1.<.:.%.X.<.1.7.5.#.3.Q #.Y.1.1.1.&._ *.1.1.1.7.7.7.",
";.M.( { { <.@.=.{ Y Y Y ;.M.<.;.7.1.7.7.1.<.%.) ^ ` ` R R ..O.+.7.6.` ^ ^ ` 7.:.^ U _ -.O.` o._ _ _ $.Y.M.M.>...R _ &.-.&.Y.6.Y.",
"O.%.' ) R o.` ` ( I U ^ -.1.<.( $.@.7.1.7.,.` W U W U Q Q T R Q 5.&._ ^ ^ ] @.5.R W ! ] R Q Q _ _ ) ] 4.7.7.4.) Q Q _ _ ' O.-.7.",
") ^ ^ ^ ) ) ) ) ^ ^ U I -.1.>._ Q ^ @.1.1.6.) ^ ) ) R Q Q Q R Q #.) _ ) ) ) ) [ W R R I U R R R ) ) ) #.6.%.[ W Q W U W W U } 6.",
"Q ^ R _ ) ^ Q ) ^ ^ I U @.>.>.` Q Q E 4.-.%._ ^ ) Q R W Q Q R Q W ) ) ) ^ ^ ) Q Q R W R R W R Q ^ ) ^ #.4.' ) ) Q U W Q Q Q Q %.",
"R Q $.` Q ^ ) $.( ^ ^ ^ ) ;.>._ R Q ! X._ Q ^ ) ) Q Q Q #.Q Q R R R ` #.) Q ) ^ Q Q R R U _ [ Q ) Q ) ` } ) ^ ) ] O.R ) Q ^ ) [ ",
"R R _ E Q Q Q O.` ^ ) ) Q ` O.Q T Q Q Q Q Q ^ ) ^ R ^ ) o.Q R Q R Q ' ` ) ^ ) Q Q E E Q W E _ R R Q Q ) ^ ' ^ W _ [ W ) ) ^ ^ ) ",
"R W R ! Q Q Q Q Q ) R ^ ) ) Q R W W W T R Q ) Q R _ ^ ) Q Q Q R R Q Q Q Q ) _ Q Q Q ! Q Q Q R R Q Q Q Q ^ W W ) Q ^ ' ^ ) ^ ) W ",
"W T Q Q Q Q Q U ) Q W ) ! ) Q U W W Q ! R Q ) Q Q ) Q ^ ! Q U W U U W W Q Q Q Q Q Q Q ! ! Q W W Q Q Q Q W ) ^ Q ) ) ) ) ) ^ ) ! ",
"! ! W W W W W Q ! ! Q ! ! ' W W ! Q Q Q Q Q ! Q ! Q ! ! Q Q ! ! W W W W W Q ! ! Q ! ! ! ! Q ! W ! W Q W ! W ! ! ! ' ! ! ) ! ! W "
};
