/* XPM */
static char *result[] = {
/* columns rows colors chars-per-pixel */
"32 32 77 1 ",
"  c black",
". c #010000",
"X c #000100",
"o c #030300",
"O c #000202",
"+ c #050200",
"@ c #050300",
"# c #1D1100",
"$ c #2B1A00",
"% c #341F00",
"& c #2A270A",
"* c #3A2200",
"= c #3A2300",
"- c #39340D",
"; c #3A350D",
": c #3C360F",
"> c #4C2D00",
", c #5D4238",
"< c #604437",
"1 c #6A4931",
"2 c #7D5646",
"3 c #795548",
"4 c #9E5E00",
"5 c #9F5E00",
"6 c #9F5F00",
"7 c #AF6800",
"8 c #966B3D",
"9 c #A46C32",
"0 c #C57400",
"q c #D37E00",
"w c #D57F00",
"e c #885D40",
"r c #9A7A45",
"t c #DA900A",
"y c #EF8E01",
"u c #FA9500",
"i c #FB9500",
"p c #FB9600",
"a c #FD9700",
"s c #FE9701",
"d c #FE9800",
"f c #FF9800",
"g c #FF9900",
"h c #FF9901",
"j c #FFA106",
"k c #FFA107",
"l c #FFA207",
"z c #FFA60A",
"x c #FFAA0C",
"c c #FFAB0D",
"v c #FFB716",
"b c #FFBB19",
"n c #C5B62E",
"m c #D5C430",
"M c #D5C431",
"N c #FFD228",
"B c #FFD229",
"V c #F4E138",
"C c #FFEA3A",
"Z c #FFEB3A",
"A c #FEEA3B",
"S c #FFEA3B",
"D c #FEEB3B",
"F c #FFEB3B",
"G c #FFEB3F",
"H c #FEEC43",
"J c #FFF175",
"K c #FFFAD2",
"L c #FEFBD7",
"P c #FFFCDF",
"I c #FFFDEF",
"U c #FFFEF0",
"Y c #FFFEF9",
"T c #FFFFFD",
"R c #FFFEFF",
"E c white",
"W c None",
/* pixels */
"WWWWWWWWWWWWWWWWWWWWWWWWWWWWWWWW",
"WWWWWWWWWWWWWWWWWWWWWWWWWWWWWWWW",
"WWWWWWWWWWWWWWW WWWWWWWWWWWWWWWW",
"WWWWWWWWWWWWWW  WWWWWWWWWWWWWWWW",
"WWWWWWWWWWWWWO .WWWWWWWWWWWWWWWW",
"WWWWWWWWWWWWW XWWWWWWWWWWWWWWWWW",
"WWWWWWWWWWW.    WWWWWWWWWWWWWWWW",
"WWWWWWWW  on<,10  WWWWWWWWWWWWWW",
"WWWWWWWW-;:Fr89c*=%WWWWWWWWWWWWW",
"WWWWWWW MFFFFvlFfd6 WWWWWWWWWWWW",
"WWWWWWW mJERGFFFSk5 WWWWWWWWWWWW",
"WWWWWW VLYTHFAFDZkpy WWWWWWWWWWW",
"WWWWWW DPETZFFFAFjgu WWWWWWWWWWW",
"WWWWWW DKUIFFFFFCkfu WWWWWWWWWWW",
"WWWWWW FSFFFZFSFFkfi WWWWWWWWWWW",
"WWWWWW FFFFFZFDFFkfu WWWWWWWWWWW",
"WWWWWWW&tbFFSFFFzh7$WWWWWWWWWWWW",
"WWWWWWW wxBNBBBBff6 WWWWWWWWWWWW",
"WWWWWWWXqaffsssffa4 WWWWWWWWWWWW",
"WWWWWWWW >ff23eff# WWWWWWWWWWWWW",
"WWWWWWWWWW@@WWW@+WWWWWWWWWWWWWWW",
"WWWWWWWWWWWWWWWWWWWWWWWWWWWWWWWW",
"WWWWWWWWWWWWWWWWWWWWWWWWWWWWWWWW",
"WWWWWWWWWWWWWWWWWWWWWWWWWWWWWWWW",
"WWWWWWWWWWWWWWWWWWWWWWWWWWWWWWWW",
"WWWWWWWWWWWWWWWWWWWWWWWWWWWWWWWW",
"WWWWWWWWWWWWWWWWWWWWWWWWWWWWWWWW",
"WWWWWWWWWWWWWWWWWWWWWWWWWWWWWWWW",
"WWWWWWWWWWWWWWWWWWWWWWWWWWWWWWWW",
"WWWWWWWWWWWWWWWWWWWWWWWWWWWWWWWW",
"WWWWWWWWWWWWWWWWWWWWWWWWWWWWWWWW",
"WWWWWWWWWWWWWWWWWWWWWWWWWWWWWWWW"
};
