/* XPM */
static char *result[] = {
/* columns rows colors chars-per-pixel */
"64 64 29 1 ",
"  c #509A2F",
". c #4F9B32",
"X c #529C32",
"o c #55A132",
"O c #59A534",
"+ c #5CAB35",
"@ c #55A438",
"# c #59A738",
"$ c #5DAB38",
"% c #5EB133",
"& c #61AE36",
"* c #61AF39",
"= c #63B436",
"- c #68B837",
"; c #64B439",
": c #68B63A",
"> c #67B93A",
", c #6BBC3B",
"< c #6EC13B",
"1 c #72C53D",
"2 c #76CB3D",
"3 c #79CE3E",
"4 c #77D53D",
"5 c #7BD33E",
"6 c #6DBB40",
"7 c #72C441",
"8 c #77C941",
"9 c #7ACD41",
"0 c #80D342",
/* pixels */
"5555055055055555555555555550555055550555050055055555555555555555",
"5555555555555555555055055550055555555555555555555555505555050555",
"5555055500555555555555055505055555055555505055055055055555055555",
"000555055550,,55550550555555505005555050530505555500550505555550",
"555535553031&&353053355000055555555555053050500355335050555<-305",
"054-<55333*&&,55335&&3055550555553-55550003555005< -3305055-O&30",
"0<%O<53=13&XO155003&O3055555555553-550553330333-3&&10353-050-O-3",
"0-o,55-O13&XO1553-&-3355555005555--50505055-&--&& -0555--500- -3",
"03205331332113353&O3035555555544%%%30305333< && OO-0553335003-O-",
"535500055555555333135030555555453-333035050333-3-335055555555333",
"5555555555005555505500035555555550355303500555555555355555555553",
"5555503555530330303035305555555553555550555550535550353555555555",
"5555550353503030330055555555555550050303550555000053355550535555",
"5555303050533553535355555555555555530355055550005555033555300550",
"5555550505555355553555555555555555555555500550555555533555055550",
"5555555550503053550555555555545455555555500355555505035553055500",
"5555555555555555555555554555455555555555000005555053553555350550",
"5555555555555555555555554455455455555555444455000350555535555000",
"5555555555555555555555554555455455055555454555050553335535555550",
"5555555555555555555545555544555555555544555550403550555555550500",
"5555555555455544554544555545555555554444404055550530555555555500",
"5555555544444445555545455455545555550444444455500555555555550500",
"5555555544544454555555455555554555454040454554555555555555550000",
"5555555544554444455555555544545555454444444444553555335555555550",
"5555545444554444555555555555555545545544444444445555550555555500",
"5555555455455455454555555555554454555544444445544555550555555500",
"5555555555555545544445545554555445455545444544444455555555555550",
"5555555555555555455454555554444544455454444445544455555555553050",
"5555555555555544445455555555545454444454544455444444535555550050",
"5555555555555544554555545555445454554544444445444444555555305500",
"5555555555555554545455545555554455554455555555544455555555055500",
"5555555545555554444555545555555544404444555555445455555555305530",
"5545454555555454454555445555455554454555545545455555555555550500",
"5555554555545534554444455555555444455555445445455545555555550505",
"5452555555555554444444455555553545555545455455555444455535355050",
"5555555555555555454555444555554440555545555545454455455553550550",
"5455445555555553544555554555545555545444554454445454555530055000",
"5554555535555454544445544445555555455455544445555555555505555550",
"5555455555555555544454444454435554544454555455544455555550555500",
"5545355555555544444444544444554444455555554555444454555555505500",
"5555555555555544544445555455435454545455554455455555555550305050",
"5555555555555555555455545354553555455545544555455555555555505500",
"5555<55555555555445554455555455555555555545455555555555555550500",
"5555555555555554555545545355355544555555555555545355555355505030",
"5554555555555545545554555555555545554555555545555555555533355000",
"5555555555555545554455455555555545455545545555455544555550555300",
"5555555555555545555455555555555545555454555555555555535555353003",
"5455555555555545555555553555555554555554555554555524555555550300",
"5555555555555555555544545555555555555555555555555545555535555500",
"5555555555555555555554555555555555555555554555554555555555555500",
"5555555500555555505550555555055555553555545555555554555555550050",
"5555555555555055555554555550555555555555555555554555555555555500",
"5555550550350055555555555455555555555555555555554555553055555500",
"55-355-3--33550555555555555,3555550-<555555550013-105531<5555300",
"55%-55--& &-55555555555<-31O-35555-OO,551-%5096:-o-5550-&-535300",
"35%%-5&-&   3553055555=o &&  &&-03Ooo%51o o<**:O%o-5052& O-<<530",
":-&XX&O&O   303O:,0553ooX XXX  O3-O OO-,  X# XXXoo+7007o  OOO=,0",
" o  O O    O<05  O-002OoX XXXX X&oOO OO=  X  XXXXoo;9>$o O    &3",
"o  OXXOO    -33OXXO8,-OoXXXX XX  Oo ooo X XX  XXooo;7ooX    XXX-",
"X :& OX:-   O-3O XXOOXooOXXX*X X  &-ooooXXXX O* o X+*ooX&& OXXX&",
"X &OXXO:&O O && .XX XXOOXXXO*XXXX O*ooooXXX@XX#XXXXo@XoXO*XoOooo",
"XX     X  O  O  XX XXXXXXOoXXXXXX  X oo XXXXX  XXXXX@XXXXooooXXX",
"           OO   XXX XXXXXOXoXX.X X XoX OXXXXXXX.XXXXXX@XXoXoXoo ",
"X     O  OO  O O.XXXXXXXXXXX@XX.X   XX  X@@XXXXXXXXXXXXXX@@X@@XX"
};
