/* XPM */
static char *result[] = {
/* columns rows colors chars-per-pixel */
"64 64 206 2 ",
"   c #030303",
".  c #0C0402",
"X  c #0B0B06",
"o  c #050509",
"O  c #070908",
"+  c #070909",
"@  c #0C0C0C",
"#  c #190703",
"$  c #140C04",
"%  c #110E0B",
"&  c #081403",
"*  c #0D1C04",
"=  c #0D140B",
"-  c #13120B",
";  c #161609",
":  c #0D0D10",
">  c #0E1112",
",  c #121313",
"<  c #1A1B17",
"1  c #2B0B03",
"2  c #2B1C0E",
"3  c #17290A",
"4  c #1C360A",
"5  c #28220B",
"6  c #282725",
"7  c #2E302E",
"8  c #33322E",
"9  c #383836",
"0  c #53290D",
"q  c #52311D",
"w  c #5B341E",
"e  c #583524",
"r  c #623B20",
"t  c #264710",
"y  c #2A4C13",
"u  c #2E5215",
"i  c #2E5315",
"p  c #386319",
"a  c #3B6C1C",
"s  c #3F711D",
"d  c #365622",
"f  c #3D7322",
"g  c #40731E",
"h  c #425636",
"j  c #7B553B",
"k  c #467C20",
"l  c #766B31",
"z  c #4E534B",
"x  c #545453",
"c  c #5F605E",
"v  c #6B6A67",
"b  c #776E64",
"n  c #73726E",
"m  c #716E70",
"M  c #767572",
"N  c #7A7774",
"B  c #7A7A75",
"V  c #7C7C7A",
"C  c #8F5E3D",
"Z  c #816F2B",
"A  c #996E38",
"S  c #967835",
"D  c #A36B3B",
"F  c #E96902",
"G  c #F76B07",
"H  c #FC6D05",
"J  c #E97503",
"K  c #FC7106",
"L  c #FE7209",
"P  c #956D47",
"I  c #8B7050",
"U  c #877359",
"Y  c #817D7D",
"T  c #D77B43",
"R  c #4C8727",
"E  c #528D27",
"W  c #4C942D",
"Q  c #4F9A2F",
"!  c #55932A",
"~  c #529B2F",
"^  c #599D2A",
"/  c #4F9B32",
"(  c #529D32",
")  c #529D38",
"_  c #54A12F",
"`  c #5EA22D",
"'  c #5BAD2F",
"]  c #54A132",
"[  c #5AA634",
"{  c #5CAB35",
"}  c #55A438",
"|  c #59A638",
" . c #5CAB39",
".. c #5EB135",
"X. c #62AE35",
"o. c #61AF38",
"O. c #63B435",
"+. c #64B439",
"@. c #6BB738",
"#. c #66B939",
"$. c #6BBC3B",
"%. c #6EC037",
"&. c #6EC13B",
"*. c #72C53C",
"=. c #75CB3D",
"-. c #7ACE3E",
";. c #77D53E",
":. c #7BD33E",
">. c #7E807C",
",. c #72C441",
"<. c #76C841",
"1. c #79CC41",
"2. c #7DD241",
"3. c #B58503",
"4. c #958432",
"5. c #9F903B",
"6. c #AE9535",
"7. c #ED950C",
"8. c #D1A60D",
"9. c #E3BE15",
"0. c #EB8939",
"q. c #F48B39",
"w. c #80D23F",
"e. c #F7D30E",
"r. c #EFCE18",
"t. c #FEC71F",
"y. c #F1CD1A",
"u. c #F6D614",
"i. c #F9D615",
"p. c #F7D916",
"a. c #FAD916",
"s. c #F6D41A",
"d. c #FAD51B",
"f. c #F7D91C",
"g. c #FADA1A",
"h. c #ECC728",
"j. c #FECC29",
"k. c #F4D523",
"l. c #F6D825",
"z. c #FADB22",
"x. c #F3D52C",
"c. c #FADB2B",
"v. c #EED135",
"b. c #F5D939",
"n. c #FBE133",
"m. c #AB9B4A",
"M. c #B6A557",
"N. c #82817D",
"B. c #8C887E",
"V. c #AB9C66",
"C. c #A49B77",
"Z. c #BAA961",
"A. c #DD884F",
"S. c #EA8C42",
"D. c #EF9346",
"F. c #EC924D",
"G. c #F49344",
"H. c #F4944A",
"J. c #F49A4F",
"K. c #D1BC54",
"L. c #EEAA4C",
"P. c #DB9466",
"I. c #D19B7D",
"U. c #E09B73",
"Y. c #80D443",
"T. c #DDC046",
"R. c #E4C647",
"E. c #E7CF5A",
"W. c #EBD65B",
"Q. c #F4D959",
"!. c #E6D269",
"~. c #F4DB64",
"^. c #F7E26D",
"/. c #848481",
"(. c #8C8C86",
"). c #8C8D89",
"_. c #918F89",
"`. c #93938D",
"'. c #99988C",
"]. c #969694",
"[. c #999794",
"{. c #979993",
"}. c #999A95",
"|. c #9B9B9A",
" X c #A09B89",
".X c #A19F99",
"XX c #9EA19B",
"oX c #A1A29B",
"OX c #A19FA2",
"+X c #A7A6A4",
"@X c #B2B3AC",
"#X c #B9B9B4",
"$X c #BFC1BD",
"%X c #E4D686",
"&X c #C0BFC1",
"*X c #C9C9C7",
"=X c #DBDAD8",
"-X c #ECEADC",
";X c #EAEAE5",
":X c #F0EFEA",
">X c #F2F1EF",
",X c #F8F8EF",
"<X c #F6F6F2",
"1X c #F7F8F3",
"2X c #F9FAF4",
"3X c #FEFEFC",
/* pixels */
":.:.:.:.w.w.:.:.w.:.w.:.:.:.;.:.2.:.:.2.:.:.;.;.Y.Y.Y.:.:.:.w.w.:.:.:.:.:.;.;.Y.:.:.2.:.:.:.:.:.:.:.w.:.:.w.:.w.;.:.:.:.:.:.;.:.",
":.:.:.;.:.w.:.:.:.2.:.:.:.:.:.:.:.:.:.:.:.:.:.:.;.w.:.Y.w.:.:.:.:.:.:.:.:.:.Y.:.:.Y.:.w.:.w.:.:.:.:.:.:.:.w.:.:.:.w.:.:.:.:.:.:.",
"w.:.:.w.:.:.:.:.:.:.:.w.:.:.w.:.:.w.:.:.:.:.w.:.:.:.:.w.:.w.:.:.:.:.w.:.:.:.;.;.w.:.:.:.:.:.:.w.:.w.w.:.:.w.:.:.:.w.:.:.:.:.:.:.",
":.w.:.w.w.w.-.:.w.w.w.:.&.&.:.:.-.:.2.:.:.2.w.:.;.:.:.w.:.w.w.w.w.w.w.:.:.Y.Y.Y.:.w.:.:.w.w.:.:.w.:.:.:.:.w.w.w.w.:.w.:.:.w.2.:.",
"w.:.;.:.;.:.:.:.:.-.1.=... .-.:.-.w.-.=.=.w.w.:.Y.;.:.w.:.w.:.:.:.:.:.;.Y.Y.w.:.-.w.w.w.w.:.2.2.:.:.=.=.:.w.w.w.2.:.2.&.O.1.2.2.",
"Y.2.2...&.:.:.=.-.:.+.| | *.:.:.:.:.-.+.{ -.:.:.w.:.w.w.:.w.:.:.:.;.' ;.w.;.;.w.:.w.-.w.:.:.;.2.:.%.| #.-.:.:.w.2.2.;.&. ...=.:.",
"w.%.{ ] *.:.=.+.&.-.{ ) [ *.:.:.:.:.1.| { =.w.-.:.:.'   :.w.:.:.:.=.O.;.w.:.w.:.w.:.-.-.-.-.*.$.=.{  .*.w.:.:.*.#.2.;.2.#.] #.:.",
"w.%.} &.:.:.#.{ &.-.{ } [ *.-.:.:.#. .,.-.-.w.w.:.:.! ; -.-.:.=.=.*.O.:.:.w.Y.:.-.-.:.*.{ #.$.|  .} #.2.:.:.-.$.#.;.2.2.&.} #.1.",
"2.-.-.1.w.:.*.<.-.:.=.*.*.-.:.:.=.{ { -.w.w.-.-.1.O 5.r.  p =...O.' ' -.:.w.-.-.:.-.w.*.| | { } | | @.:.:.:.:.=.-.2.w.w.-.+.[ #.",
":.w.:.:.2.2.:.:.:.:.:.:.:.-.:.-.:.*.*.:.w.-.w.d % b.x.y.  p ;.=.*.*.=.:.w.-.:.:.w.w.w.=.*.=.*.*.*.*.1.:.-.:.:.:.:.:.:.:.:.-.*.=.",
"w.:.:.:.:.2.:.:.:.:.2.-.:.:.:.:.-.w.w.:.:.w.:.g ; c.l.s.  p :.;.w.w.-.:.:.w.w.:.w.:.:.:.:.:.w.:.:.2.:.:.:.:.:.:.-.:.:.:.:.:.w.:.",
":.:.:.:.w.:.:.:.:.:.:.2.1.1.:.:.w.:.:.  o @ : !.z.z.f.c.% O o 2.-.:.-.w.-.w.:.1.:.:.:.:.:.w.:.w.:.:.:.:.w.-.:.:.w.:.:.:.:.2.:.:.",
":.:.:.:.:.2.:.-.:.:.-.;.2.1.& & * * 3 E.W.W.~.b.z.z.4.1 ~.%Xo 1.:.w.2.:.:.-.:.-.:.w.:.Y.:.:.w.-.:.:.:.-.2.-.:.:.-.:.-.w.:.:.:.w.",
":.:.:.:.:.2.1.2.-.-.:.2.:.;..       $ e.u.g.p.p.d.k.4.; v.!.> 2.:.:.:.1.2.2.:.:.w.:.w.:.:.-.:.:.2.:.:.:.:.1.:.-.w.w.-.w.2.:.:.Y.",
":.;.;.:.:.:.w.:.w.:.2.2.- % k.f.p.p.u.u.e.u.p.e.a.8.h.k.; p ;.;.:.:.:.:.:.:.:.2.:.:.:.:.:.2.:.:.w.:.w.:.:.:.:.:.:.:.2.:.w.:.2.Y.",
":.:.;.:.w.:.:.:.w.w.2.$.l Z a.f.i.u.u.u.f.u.e.8.9.3.6.S ^ %.:.:.:.:.:.;.:.:.:.2.:.w.w.:.:.Y.w.:.:.:.w.-.-.:.-.-.:.:.:.:.:.:.2.Y.",
":.;.;.w.:.:.;.w.w.:.2.@ ~.f.g.a.a.i.a.i.u.i.e.3.3.9.l   :.;.:.:.;.w.;.w.w.;.;.Y.:.:.Y.Y.;.:.Y.:.:.w.Y.:.1.:.:.:.;.:.:.-.:.:.w.Y.",
":.:.;.w.:.:.;.:.:.:.:.o ~.a.g.g.g.z.g.d.z.f.i.e.r.  O.;.;.:.;.;.;.;.w.;.;.;.w.;.;.:.:.Y.Y.:.:.Y.-.-.:.1.:.;.:.:.;.:.;.2.:.2.2.Y.",
":.:.:.;.w.:.w.w.:.:.2.o Q.d.a.g.z.^.^.K.z.z.g.i.s.5 ^ =.;.:.:.;.;.w.w.;.w.;.;.Y.;.Y.;.;.:.;.;.Y.2.2.w.:.1.;.:.1.;.:.2.-.:.:.2.Y.",
":.:.w.:.:.:.:.;.2.-.;.  Q.a.a.g.f.-X;X, b.g.a.a.p.e.4.  :.:.:.:.;.w.w.;.w.;.Y.;.Y.;.:.:.:.Y.w.Y.2.:.:.Y.2.2.:.:.:.-.;.:.:.Y.2.Y.",
"w.;.;.w.:.:.:.:.:.  # S.A S u.s.z.; , = b.g.g.a.u.u.5.  :.:.:.:.;.w.;.w.;.Y.;.;.;.Y.Y.;.;.w.;.;.2.:.2.;.;.:.;.:.:.;.:.:.:.w.:.Y.",
":.:.:.:.:.:.:.;.;.. 1 0.D A h.s.f.. $ $ n.z.j.t.j.d.5.$ :.:.:.:.w.;.;.;.;.;.;.;.;.;.w.;.Y.Y.Y.;.1.2.;.2.-.:.:.:.:.:.:.:.w.w.2.Y.",
":.;.;.w.;.:.:.;.o F.D.G.G.0.I T.u.s.i.a.d.d.K K L K j.c.X a :.;.;.w.;.;.;.;.;.;.;.Y.;.;.;.;.;.w.;.:.:.:.:.:.2.:.=.:.2.:.w.2.Y.Y.",
";.w.;.w.;.:.:.:.@ F.S.D.D P U K.i.i.i.i.J J H H L L j.c.= s ;.:.w.;.;.w.Y.;.;.;.;.;.;.;.;.;.;.Y.:.:.1.:.:.;.;.:.:.:.:.:.:.2.2.2.",
"w.:.:.:.;.:.:.;.& D.D.J.P I U R.i.p.i.a.F G H H H K j.n.& g :.:.;.;.w.;.;.;.;.w.;.;.;.Y.;.;.;.;.;.:.:.;.;.:.:.:.:.:.:.;.:.:.w.Y.",
";.:.;.;.:.:.:.;.. 0.P.= L.L.U R.e.a.u.i.a.d.H H H d.z.c.. p :.;.;.;.;.;.w.;.;.;.;.;.;.;.;.Y.;.;.;.;.;.;.2.:.:.2.:.;.:.:.:.:.Y.2.",
":.:.;.w.;.w.;.w.X.C j @ P S 6.v.g.u.p.i.g.d.7.7.7.p.p.k.8 h @.:.;.;.w.w.w.;.;.;.;.;.;.;.;.;.;.;.;.;.;.;.;.:.:.:.:.:.;.:.:.w.:.Y.",
":.;.;.:.;.w.;.;.:.@ : O o % d.i.p.p.u.a.g.g.g.a.g.s.p.l.(.`.  :.;.;.;.;.;.;.w.;.;.;.;.;.;.;.;.;.;.2.;.;.:.:.;.:.:.:.:.:.-.:.2.Y.",
"w.:.;.;.w.;.w.;.:.:.:.w.t   r.i.u.p.g.g.g.g.g.g.p.f.K.(._.`.  :.;.;.w.;.;.;.;.;.;.;.;.;.;.;.;.;.;.2.;.;.:.:.;.:.:.:.:.:.Y.:.Y.2.",
"w.;.w.;.w.;.;.w.:.:.:.:.t   r.p.s.g.g.g.g.g.g.x.b.v.m.(.B._.@ =.w.w.;.;.;.w.;.;.;.;.;.;.w.:.;.;.;.;.;.;.;.:.:.:.:.:.-.:.-.w.Y.Y.",
";.;.%.;.;.:.:.%.:.:.:.:.t   a.a.p.f.z.f.a.a.i.M.}.'.N M v n n % 3 ;.;.;.;.;.;.;.;.:.:.;.;.w.:.;.;.;.;.;.:.:.:.-.w.-.w.w.:.2.-.Y.",
":.:.w.w.:.:.;.:.;.:.:.:.t . s.a.g.p.g.f.V.C.C. XoXz Y oX}.`.}.|. X3 ;.;.;.;.;.w.;.;.:.:.w.;.;.:.:.;.;.;.:.:.:.:.:.w.:.:.w.w.-.Y.",
"=.:.:.:.:.-.:.:.;.:.:.:.y X z.g.g.x.x.x. X].[.}.OXd N.|.}.|.}.XXXX& %.;.;.:.:.:.;.;.:.;.;.:.;.;.:.:.;.:.:.;.:.:.-.:.-.w.w.:.w.:.",
":.:.:.:.:.;.:.:.:.:.:.:.y ; z.f.f. X].].'.'.}.  o 2X@X}.}.|.}.{.}.}.6 X :.;.:.:.;.;.:.;.;.:.:.;.:.;.;.;.:.:.:.:.-.:.:.:.w.:.:.w.",
":.:.;.;.;.-.:.:.:.:.:.:.u @ M.Z.Z.}.|.].[.}.].  o <X@X}.}.}.|.}..X|.XX|.E *.;.:.:.:.;.2.:.:.:.2.:.;.;.;.:.:.:.:.-.:.:.w.:.w.w.Y.",
":.:.;.:.;.:.:.:.:.;.:.2.i O |.|.|.oX.X}.|.}.'.  o 1X#X|.}.}.|.|.'.{.XX|.O X.;.-.:.;.:.:.;.;.:.:.;.:.:.:.:.:.:.:.w.:.w.:.w.-.w.Y.",
":.%.;.w.:.:.;.=.-.:.:.;.t   ].}.}.|..X}.].}.}.o % 3X#XOX|.}.}.|.|.}.}.}.`.B   :.:.:.;.;.:.:.;.;.:.:.;.:.:.;.:.:.:.w.w.2.:.:.Y.Y.",
":.:.;.;.;.:.:.:.:.:.:.:.4   `.}.|.|.'.|.{.}.|.O : 3X*X=X.X|.|.}.].|.}.}.`.V   :.;.:.;.;.;.:.:.;.;.:.:.:.:.:.=.:.w.:.:.:.:.2.Y.2.",
"w.;.;.w.;.:.:.:.:.:.:.:.4   ].].|.{.{.|.}.}.|.: , 3X3X3X|.XX}.{.|.}.{.}.{.>.O :.:.:.:.;.:.:.=.:.;.2.;.:.-.:.:.:.:.Y.:.:.:.2.2.Y.",
"w.w.;.;.:.:.:.:.:.:.:.=.4   ).].}.].|.|.].|.|.: , 3X3X3X3X:X].}.].].|.{.].].|.= y ;.:.;.:.:.:.;.;.;.;.:.:.:.:.;.:.:.:.:.:.2.2.Y.",
";.:.;.:.:.w.w.;.:.:.:.:.p 3 `.].{.}.}.|.|.OX|.: , 3X3X3X3X;X].].].].].|.].OXOX> t 2.1.;.:.:.;.:.;.;.:.;.:.:.:.:.w.:.:.:.w.:.w.Y.",
":.:.:.;.w.%.;.w.;.:.-.:.:.=.  /.}.}.|.|.|.|.|.: % *X=X2X,X;X`.].].|.].|.|.|.|.OX+X+ ..;.=.;.:.;.:.;.:.:.;.:.;.:.2.w.:.:.w.:.Y.2.",
";.;.;.:.;.;.;.w.;.-.;.:.:.;.  (.|.}.}.|.|.|.|.+X}.  z $X,X,X1X,X<X].|.|.|.|.|.].XXOX< 3 :.:.:.:.;.:.;.:.:.;.:.:.:.:.w.w.w.:.:.Y.",
";.w.w.:.w.w.;.;.:.:.:.:.:.:.@ (.|.OX|.|.|.|.|.].).  c *X,X,X1X3X3X|.|.OXOX|.|.|.{.{.O   :.:.;.:.;.:.:.:.:.:.:.=.:.-.:.-.:.2.1.Y.",
":.:.w.;.:.:.;.;.:.;.:.:.:.:.@ @ : |.].OX|.|.}.`.`.v 9   *X*X3X3X3X3X+XOX|.|.|.].{.{.}.].o *.:.:.:.:.:.;.:.=.:.:.:.-.w.:.w.Y.Y.Y.",
":.w.;.;.:.:.:.:.:.;.:.:.:.;.2.` @ ).>.Y N M ].].`.m N N., < 6 =X=X3X<X>X:X&X].}.].}.}.}.{.d i :.:.;.;.:.:.;.:.:.-.:.1.:.:.:.Y.1.",
":.;.w.;.:.w.:.:.:.:.:.:.:.2.;.` @ /.V V Y m `.`.`.m N Y : % , =X=X3X<X2X2X*X`.].}.|.|.}.|., O :.;.:.:.;.-.:.:.:.:.w.:.1.-.Y.1.Y.",
":.:.;.:.:.%.:.:.:.:.w.;.;.:.;.2.2.  o N M M m m M N V V Y N.Y @ + o   o   7 v {.|.|.}.|.|.}.|.O E ;.:.;.:.:.;.:.:.:.:.:.w.Y.2.Y.",
":.:.:.:.:.:.;.;.w.:.w.;.w.w.;.w.:.E k x z x n M B B V V V V N 7 7 6 < < 6 9 x B V B V Y B M V s $.:.:.:.:.;.:.:.:.;.:.:.:.w.:.Y.",
"w.:.w.:.w.:.:.w.:.:.w.;.;.;.w.;.:.;.;.      M V V >.V V V V N M n m M n B x O   O   o       O :.:.:.;.:.:.:.;.-.:.:.:.:.w.w.Y.1.",
";.w.:.w.:.w.:.w.w.:.:.;.;.w.;.w.:.:.:.:.-.-.O = @ = = @ V V N n n       O E ].].].].].].{.8 O   a ;.:.:.:.:.:.:.=.:.:.:.:.Y.w.Y.",
"w.w.;.:.w.:.:.w.:.w.:.:.w.w.;.;.:.:.:.:.:.;., > : - > : B.Y M M M &   X = ^ ].].].].].].{.9 @ - k :.:.:.:.=.:.:.:.:.:.:.:.2.2.Y.",
";.;.w.w.w.;.w.w.:.:.w.w.w.w.;.w.:.:.2.2.:.:.2.; @ 2.^     . b     :.:.;.:.` O .   ].].].].].].].(.  O & :.:.:.:.:.:.:.:.w.:.w.Y.",
"w.w.%.w.w.w.%.:.%.%.;.w.;.w.w.;.:.:.:.; < - - I.P.*       # T .   3 @.%.*.:.w.:.-.@ o X ].].].].{.'.`.].* & * *.%.=.:.:.:.:.1.Y.",
";.w.' %.w.w.' %.' ^ ' ' %.w.w.;.w.:.:.% $ $ $ U.A.        1 q.# . X ! [ [ &.-.;.=.@ @ O ].].].].].{.{.].      @.{ %.:.:.2.2.2.Y.",
"%.w.' ' ' ;.' %.' ^ ^ ^ %.w.;.%.w.- 2 G.H.H.H.1 X 0.q.q.q.q.q.G.G.G.0 O ] { 2.*._ Q [ &.      O z {.{.].].].].  ~ [ $.&.$.2.1.Y.",
"#.#.[ ] ~ o.| +.^ ^ Q Q %.:.;.' #.@ # w w w e .   e e e q q w e r w # O _ { $.,.~ / ( | W W ~ O 3 a f R ! ! k O ( ( [ [ } O.&.2.",
"( _ ] ] ] ] _ ( Q ^ Q Q *.:.=._ ( @ O .                 o O X X @ @   O ] ] [  .~ / / W Q ~ ~ O o       O   O   ( ~ Q / / Q  .1.",
"~ _ ~ _ _ _ ] _ _ _ Q Q $.=.=.{ ( ~ [ <.&.#.[ _ ~ ] ~ ( / ~ / ~ ( [ ] ] _ _ _ / ~ / ( ( ~ W ( ( ] } _ #.,.] ( ] ( Q ( / / / _ #.",
"~ ( #.{ ( ] ( #.' _ Q _ ~ *.=.` ~ ~ ~ { _ ] _ ] ] ( ( ( O.( ( ~ ( ~ [ #.] ( ] _ ( ( ( ( ~ [ { ( ( ( ( { { ] ] ( { o.~ ] _ _ [  .",
"~ ( | [ ( ~ ( +.[ _ ] ( ~ { O.( ) ! ( ( ~ ] _ [ ] ~ _ ] o.( ~ ~ ~ ( }  .] ` ] ( ( ( ~ ^ / [ [ ( ( ( ( [ ] ] ] / {  .] ] ] ] _ ] ",
"( ! ) ! ( ~ ( _ ] _ ] ] _ ] ( ~ ) ! ! ( ( ( ~ ( ~ [ _ ] ( ( ~ ( ~ ( ( ( ( ] ] ( ( ( ( ( ! ! ~ ~ ( ( ( ( ] ] / ] / ] ] ] ] _ ] / ",
") ! ( / ) ( ( ~ ] ( _ ( ] ] ( ~ / / ( / ~ ( ( ] ( ] ( _ ( ( ( / / / / / ( ( ] ( ~ ] ( ( ) ( ! ) / ( ( / / / ) / ] ] ( ( ] ] ] / ",
") / / / / / / / ) ) ( ) ) ) / ) / / ) ( ) ( ) ( ) ( ) ) ( ) ) / / / / / / / ) ) ) ) ) ) } ) ) / ) ) / / } / / ) } ] } ( ( ) ) ) "
};
